<mxfile host="app.diagrams.net" modified="2020-08-16T01:29:45.735Z" agent="5.0 (Windows NT 10.0; Win64; x64) AppleWebKit/537.36 (KHTML, like Gecko) Chrome/84.0.4147.125 Safari/537.36" etag="ChmY7zvJLcmHf8JAGH8u" version="13.6.2" type="github">
  <diagram id="PLfb2DMcHPXeEHQQHA8u" name="Page-1">
    <mxGraphModel dx="1774" dy="946" grid="1" gridSize="10" guides="1" tooltips="1" connect="1" arrows="1" fold="1" page="1" pageScale="1" pageWidth="1920" pageHeight="1200" math="0" shadow="0">
      <root>
        <mxCell id="0" />
        <mxCell id="1" parent="0" />
        <mxCell id="aum1AoG0NpGCuyagNsFS-15" value="" style="edgeStyle=orthogonalEdgeStyle;rounded=0;orthogonalLoop=1;jettySize=auto;html=1;fillColor=#dae8fc;strokeColor=#6c8ebf;gradientColor=#7ea6e0;" edge="1" parent="1" target="aum1AoG0NpGCuyagNsFS-14">
          <mxGeometry relative="1" as="geometry">
            <mxPoint x="810" y="90" as="sourcePoint" />
          </mxGeometry>
        </mxCell>
        <mxCell id="aum1AoG0NpGCuyagNsFS-17" value="" style="edgeStyle=orthogonalEdgeStyle;rounded=0;orthogonalLoop=1;jettySize=auto;html=1;fillColor=#dae8fc;strokeColor=#6c8ebf;gradientColor=#7ea6e0;" edge="1" parent="1" source="aum1AoG0NpGCuyagNsFS-14" target="aum1AoG0NpGCuyagNsFS-16">
          <mxGeometry relative="1" as="geometry" />
        </mxCell>
        <mxCell id="aum1AoG0NpGCuyagNsFS-19" value="" style="edgeStyle=orthogonalEdgeStyle;rounded=0;orthogonalLoop=1;jettySize=auto;html=1;fillColor=#dae8fc;strokeColor=#6c8ebf;gradientColor=#7ea6e0;" edge="1" parent="1" source="aum1AoG0NpGCuyagNsFS-14" target="aum1AoG0NpGCuyagNsFS-18">
          <mxGeometry relative="1" as="geometry" />
        </mxCell>
        <mxCell id="aum1AoG0NpGCuyagNsFS-115" style="edgeStyle=elbowEdgeStyle;rounded=0;orthogonalLoop=1;jettySize=auto;html=1;exitX=0.25;exitY=1;exitDx=0;exitDy=0;entryX=0.5;entryY=0;entryDx=0;entryDy=0;endArrow=classic;endFill=1;" edge="1" parent="1" source="aum1AoG0NpGCuyagNsFS-14" target="aum1AoG0NpGCuyagNsFS-108">
          <mxGeometry relative="1" as="geometry" />
        </mxCell>
        <mxCell id="aum1AoG0NpGCuyagNsFS-119" style="edgeStyle=elbowEdgeStyle;rounded=0;orthogonalLoop=1;jettySize=auto;html=1;exitX=0.75;exitY=1;exitDx=0;exitDy=0;endArrow=classic;endFill=1;" edge="1" parent="1" source="aum1AoG0NpGCuyagNsFS-14" target="aum1AoG0NpGCuyagNsFS-113">
          <mxGeometry relative="1" as="geometry">
            <Array as="points">
              <mxPoint x="820" y="250" />
            </Array>
          </mxGeometry>
        </mxCell>
        <mxCell id="aum1AoG0NpGCuyagNsFS-125" style="edgeStyle=orthogonalEdgeStyle;rounded=0;orthogonalLoop=1;jettySize=auto;html=1;exitX=0.75;exitY=1;exitDx=0;exitDy=0;endArrow=classic;endFill=1;entryX=0.592;entryY=-0.01;entryDx=0;entryDy=0;entryPerimeter=0;" edge="1" parent="1" source="aum1AoG0NpGCuyagNsFS-14" target="aum1AoG0NpGCuyagNsFS-114">
          <mxGeometry relative="1" as="geometry">
            <mxPoint x="980" y="280" as="targetPoint" />
          </mxGeometry>
        </mxCell>
        <mxCell id="aum1AoG0NpGCuyagNsFS-14" value="Modules / Frontend" style="whiteSpace=wrap;html=1;rounded=0;fillColor=#dae8fc;strokeColor=#6c8ebf;gradientColor=#7ea6e0;" vertex="1" parent="1">
          <mxGeometry x="750" y="170" width="120" height="60" as="geometry" />
        </mxCell>
        <mxCell id="aum1AoG0NpGCuyagNsFS-106" style="edgeStyle=elbowEdgeStyle;rounded=0;orthogonalLoop=1;jettySize=auto;html=1;exitX=0.5;exitY=1;exitDx=0;exitDy=0;entryX=0.5;entryY=0;entryDx=0;entryDy=0;endArrow=classic;endFill=1;" edge="1" parent="1" source="aum1AoG0NpGCuyagNsFS-16" target="aum1AoG0NpGCuyagNsFS-22">
          <mxGeometry relative="1" as="geometry" />
        </mxCell>
        <mxCell id="aum1AoG0NpGCuyagNsFS-16" value="UI kit&amp;nbsp;" style="whiteSpace=wrap;html=1;rounded=0;fillColor=#dae8fc;strokeColor=#6c8ebf;gradientColor=#7ea6e0;" vertex="1" parent="1">
          <mxGeometry x="250" y="130" width="120" height="50" as="geometry" />
        </mxCell>
        <mxCell id="aum1AoG0NpGCuyagNsFS-18" value="Backend" style="whiteSpace=wrap;html=1;rounded=0;fillColor=#dae8fc;strokeColor=#6c8ebf;gradientColor=#7ea6e0;" vertex="1" parent="1">
          <mxGeometry x="1370" y="170" width="120" height="60" as="geometry" />
        </mxCell>
        <mxCell id="aum1AoG0NpGCuyagNsFS-94" value="" style="edgeStyle=orthogonalEdgeStyle;orthogonalLoop=1;jettySize=auto;html=1;rounded=0;" edge="1" parent="1" source="aum1AoG0NpGCuyagNsFS-22" target="aum1AoG0NpGCuyagNsFS-93">
          <mxGeometry relative="1" as="geometry" />
        </mxCell>
        <mxCell id="aum1AoG0NpGCuyagNsFS-97" value="" style="edgeStyle=elbowEdgeStyle;rounded=0;orthogonalLoop=1;jettySize=auto;html=1;endArrow=classic;endFill=1;" edge="1" parent="1" source="aum1AoG0NpGCuyagNsFS-22" target="aum1AoG0NpGCuyagNsFS-96">
          <mxGeometry relative="1" as="geometry" />
        </mxCell>
        <mxCell id="aum1AoG0NpGCuyagNsFS-98" value="" style="edgeStyle=elbowEdgeStyle;rounded=0;orthogonalLoop=1;jettySize=auto;html=1;endArrow=classic;endFill=1;" edge="1" parent="1" source="aum1AoG0NpGCuyagNsFS-22" target="aum1AoG0NpGCuyagNsFS-96">
          <mxGeometry relative="1" as="geometry">
            <Array as="points" />
          </mxGeometry>
        </mxCell>
        <mxCell id="aum1AoG0NpGCuyagNsFS-100" value="" style="edgeStyle=elbowEdgeStyle;rounded=0;orthogonalLoop=1;jettySize=auto;html=1;endArrow=classic;endFill=1;" edge="1" parent="1" source="aum1AoG0NpGCuyagNsFS-22" target="aum1AoG0NpGCuyagNsFS-99">
          <mxGeometry relative="1" as="geometry">
            <Array as="points" />
          </mxGeometry>
        </mxCell>
        <mxCell id="aum1AoG0NpGCuyagNsFS-102" value="" style="edgeStyle=elbowEdgeStyle;rounded=0;orthogonalLoop=1;jettySize=auto;html=1;endArrow=classic;endFill=1;" edge="1" parent="1" source="aum1AoG0NpGCuyagNsFS-22" target="aum1AoG0NpGCuyagNsFS-101">
          <mxGeometry relative="1" as="geometry">
            <Array as="points">
              <mxPoint x="490" y="235" />
            </Array>
          </mxGeometry>
        </mxCell>
        <mxCell id="aum1AoG0NpGCuyagNsFS-22" value="Mockups" style="whiteSpace=wrap;html=1;rounded=0;strokeColor=#6c8ebf;fillColor=#dae8fc;gradientColor=#7ea6e0;" vertex="1" parent="1">
          <mxGeometry x="250" y="220" width="120" height="30" as="geometry" />
        </mxCell>
        <mxCell id="aum1AoG0NpGCuyagNsFS-39" value="event app&amp;nbsp;&lt;br&gt;&lt;font style=&quot;font-size: 18px&quot;&gt;Platzi Master Project&lt;/font&gt;" style="text;strokeColor=none;fillColor=none;html=1;fontSize=24;fontStyle=1;verticalAlign=middle;align=center;" vertex="1" parent="1">
          <mxGeometry x="760" y="40" width="100" height="40" as="geometry" />
        </mxCell>
        <mxCell id="aum1AoG0NpGCuyagNsFS-93" value="Landing page" style="whiteSpace=wrap;html=1;rounded=0;strokeColor=#6c8ebf;fillColor=#dae8fc;gradientColor=#7ea6e0;" vertex="1" parent="1">
          <mxGeometry x="20" y="290" width="120" height="30" as="geometry" />
        </mxCell>
        <mxCell id="aum1AoG0NpGCuyagNsFS-96" value="Event module" style="whiteSpace=wrap;html=1;rounded=0;strokeColor=#6c8ebf;fillColor=#dae8fc;gradientColor=#7ea6e0;" vertex="1" parent="1">
          <mxGeometry x="160" y="290" width="120" height="30" as="geometry" />
        </mxCell>
        <mxCell id="aum1AoG0NpGCuyagNsFS-99" value="Diffusion module" style="whiteSpace=wrap;html=1;rounded=0;strokeColor=#6c8ebf;fillColor=#dae8fc;gradientColor=#7ea6e0;" vertex="1" parent="1">
          <mxGeometry x="290" y="290" width="120" height="30" as="geometry" />
        </mxCell>
        <mxCell id="aum1AoG0NpGCuyagNsFS-101" value="Users Module" style="whiteSpace=wrap;html=1;rounded=0;strokeColor=#6c8ebf;fillColor=#dae8fc;gradientColor=#7ea6e0;" vertex="1" parent="1">
          <mxGeometry x="430" y="290" width="120" height="30" as="geometry" />
        </mxCell>
        <mxCell id="aum1AoG0NpGCuyagNsFS-170" style="edgeStyle=none;rounded=0;orthogonalLoop=1;jettySize=auto;html=1;exitX=0.5;exitY=1;exitDx=0;exitDy=0;entryX=0.5;entryY=0;entryDx=0;entryDy=0;endArrow=classic;endFill=1;" edge="1" parent="1" source="aum1AoG0NpGCuyagNsFS-108" target="aum1AoG0NpGCuyagNsFS-131">
          <mxGeometry relative="1" as="geometry">
            <Array as="points">
              <mxPoint x="690" y="400" />
              <mxPoint x="80" y="400" />
            </Array>
          </mxGeometry>
        </mxCell>
        <mxCell id="aum1AoG0NpGCuyagNsFS-108" value="Event module" style="whiteSpace=wrap;html=1;rounded=0;strokeColor=#6c8ebf;fillColor=#dae8fc;gradientColor=#7ea6e0;" vertex="1" parent="1">
          <mxGeometry x="630" y="290" width="120" height="30" as="geometry" />
        </mxCell>
        <mxCell id="aum1AoG0NpGCuyagNsFS-113" value="Diffusion module" style="whiteSpace=wrap;html=1;rounded=0;strokeColor=#6c8ebf;fillColor=#dae8fc;gradientColor=#7ea6e0;" vertex="1" parent="1">
          <mxGeometry x="770" y="290" width="120" height="30" as="geometry" />
        </mxCell>
        <mxCell id="aum1AoG0NpGCuyagNsFS-114" value="Users Module" style="whiteSpace=wrap;html=1;rounded=0;strokeColor=#6c8ebf;fillColor=#dae8fc;gradientColor=#7ea6e0;" vertex="1" parent="1">
          <mxGeometry x="910" y="290" width="120" height="30" as="geometry" />
        </mxCell>
        <mxCell id="aum1AoG0NpGCuyagNsFS-140" value="" style="edgeStyle=none;rounded=0;orthogonalLoop=1;jettySize=auto;html=1;endArrow=classic;endFill=1;exitX=1.003;exitY=0.054;exitDx=0;exitDy=0;exitPerimeter=0;" edge="1" parent="1" source="aum1AoG0NpGCuyagNsFS-126" target="aum1AoG0NpGCuyagNsFS-139">
          <mxGeometry relative="1" as="geometry" />
        </mxCell>
        <mxCell id="aum1AoG0NpGCuyagNsFS-126" value="" style="shape=image;verticalLabelPosition=bottom;labelBackgroundColor=#ffffff;verticalAlign=top;aspect=fixed;imageAspect=0;image=data:image/png,iVBORw0KGgoAAAANSUhEUgAAAoEAAAM0CAYAAADEI/jKAAAgAElEQVR4Aey9/W9U55333z9lfqoVsYsUdZHYVajuXSytNr5TbVBX2+VbRWXTblFVhW323k06QrNbEoemEFmNSRtY2uAmNA5p+BpUQpLmtrdfMMSMx9jYxs/gB4xhAoYxGNsM9P3VdR5mzjzaY88ce8YvS6M5c865nl7X5Tkvf65zHX9F/EAAAhCAAAQgAAEIrDsCX1l3LabBEIAABCAAAQhAAAJCAhkEEIAABCAAAQhAYB0SQALXYafTZAhAAAIQgAAEIIAEMgYgAAEIQAACEIDAOiSABK7DTqfJEIAABCAAAQhAAAlkDEAAAhCAAAQgAIF1SAAJXIedTpMhAAEIQAACEIAAEsgYgAAEIAABCEAAAuuQABK4DjudJkMAAhCAAAQgAAEkkDEAAQhAAAIQgAAE1iEBJHAddjpNhgAEIAABCEAAAkggYwACEIAABCAAAQisQwJI4DrsdJoMAQhAAAIQgAAEkEDGAAQgAAEIQAACEFiHBJDAddjpNBkCEIAABCAAAQgggYwBCEAAAhCAAAQgsA4JIIHrsNNpMgQgAAEIQAACECiKBM7OzurWrVuKRqO8YMAYYAwwBhgDjAHGAGNgmWPA+JTxKj9+ViyBpqL3H4oXDBgDjIE1PQbGx8f9+E6lDAhAAAIrJmC+r/wQwRVLoDFWJBAJZgwwBtb6GEACV3xdIgMIQMAnAub7yvhVqX9WLIFmCnitf/lTPwSFMcAYQAJLfTkhfwhAoFgEzPeV8atS/yCBTOEh8YyBdTEGkMBSX07IHwIQKBYBJJAL87q4MBOhI0Ln1xhAAot1eSIfCECg1ASQQCQQCWQMMAaKOAaQwFJftsgfAhAoFgEksIhf/n5FGiiHqBZjYO2OASSwWJcn8oEABEpNAAlEAokCMQYYA0UcA0hgqS9b5A8BCBSLABJYxC9/ojNrNzpD39A3fo0BJLBYlyfygQAESk0ACUQCiQIxBhgDRRwDSGCpL1vkDwEIFIsAEljEL3+/Ig2UQ1SLMbB2xwASWKzLE/lAAAKlJoAEIoFEgRgDjIEijgEksNSXLfKHAASKRQAJLOKXP9GZtRudoW/oG7/GABJYrMsT+UAAAqUmgAQigUSBGAOMgSKOASSw1Jct8ocABIpFAAks4pe/X5EGyiGqxRhYu2MACSzW5Yl8IACBUhNAApFAokCMAcZAEccAEljqyxb5QwACxSKABBbxy5/ozNqNztA39I1fYwAJLNbliXwgAIFSE0ACkUCiQIwBxkARxwASWOrLFvlDAALFIoAEFvHL369IA+UQ1WIMrN0xgAQW6/JEPhCAQKkJIIFIIFEgxgBjoIhjAAks9WWL/CEAgWIRQAKL+OVPdGbtRmfoG/rGrzGABBbr8kQ+EIBAqQkggUggUSDGAGOgiGMACSz1ZYv8IQCBYhFAAov45e9XpIFyiGoxBtbuGEACi3V5Ih8IQKDUBJBAJJAoEGOAMVDEMYAElvqyRf4QgECxCCCBRfzyJzqzdqMz9A1949cYQAKLdXkiHwhAoNQEkEAkkCgQY4AxUMQxgASW+rJF/hCAQLEIIIFF/PL3K9KwknKmo/c05b7u5o8OuedOzznn3bPTJj6ns5tbsPK2jjvnumXlTOPkMX3bUy+3fub9nnT/rjm2kFtUPPXKm89DyRzPVRervQ6TnPk4dcuVx0r6hrT5x2O58EECi3B5erSg2PS93K9Zu4z5GXPOQvYCPXnMP/Kc4u6f9+xzNuetMp385nOUP7MguXnkqmNK/bLk45Rt199zPEudMmspKV/dZvMwMZk5aS0m+fJxz3XaklEPbzm58nH5LLVdGYWwo9QEkMB0kVnG5y9n/6SP+xa09//O6vn3Y3r2V3f19ME7+ruDd6x389nsN8fNeeb81bmgdeuVJzbrq97X12r0z6+3asAVPSNKlz/Uzr/0nPe1Gu1676qmL76jv35is/76wECW+k/q1/+4WV/92j613JPGjr2YWs4Tm/Vn/+tF/bz1Vpa0t/Te9zzleer3z8duaerEy1ZeO0/cy0x7L6zdX9usr/7jhxp4mD+f++7xp9/UuQwBdti83q3EeZ56pDB74kW9N1EZwrI647Cy2a11CXz8+LFmZmZ08+ZNjY2NaWRkRENDQ4mX+Wz2m+PmPHO+7z+RNzO+P1J+B/d1S7qlD//FfG+8qQ5vBWev6sOffFd/4f39/dpzCh4fUMzIoJP3947f8qRaUMe+b+mrT3xd3zs+ae3/8njmd5hVh385qS8Lql/md5tdtlv/tON/9V3926/C+tIrrp6ams18dbv6e/v78oe/v5eWyghgWD8x35ff+lATi+TzZeL4t/TTSKZod+xLss9ZH6cPUllnVos9q0cACVyG9LkXzss3H1liZ4TvH47ctaTPiF++lznPnG+E0KR38/Ln3RGdb76pD/8YVssfW/Xr3c/pz4zYvd6tacPiXrde2bpZX326Vr/+Q7fOtX2qX774nL7xSyN+A/q5OeaIXkqd0wTRlcCdvzLlhNXyhw/1H0+bL41v6efd6RLgytvL+qVVLyfNH8M6N7qg+7dbtMt8mViil5o2VRAXyceVQCOkO0+miO/9h14JXNBAe7IOv9xl6v2cXjnh7uvWgIlQrmDskLZy+a1VCVxYWLDEzgifkbxr165pamrK2heNRuW+jPyZ/ea4Oc+cb/aZ9L79TF/V+daw/fr9m/p78/v/r0eT+waN4LgS5ZHA2W79tMb8vn5df/9/juqkyaP5pH76fLW+WvOmOkxUK4sEThx/UX/+xGb93b5uuUErV2x+eMSph1ufzknNF1S/l/UrN63z3nHNsHTr7z3+qX71f56z6vLnPzipiRwimLduMy36N8PLET1vn8XSBDFvPgkJNN/5L+rDa96cJK8Ezl/rTvbNEVtC//6nnyb22e1NTc+ntUEACVzmhfwXrQ/0jcN39L//O7/05RJCk86kN/n4JwSO6HzvpMbcds85Yrf1HbWbfd12tM9E4LLVa+C971p/oe9u9k7PLqhlz9f11Se+q18P2xd3VwJfafNc7B1R/LM6E23z7E/I2Zs6l7LfPcfN/zn9esDdZ95To4/JCF6ufFxJNBeJzfrn9yc99fBKoLcM6dzr5nyif6l9lsqIY0kea1ECv/zySw0PD2tiYiJD+lz5y/VuBNCkM+lNPr7/TJ3U94zUWNE/b+muRCUlsPdgajTPe/a8a3dpEjgfeVN/98RmpUuXK0g/jXhzybJdQP1SU2fW3z0+4cyk/OP7dlTS3e++56/bgs6/ar6Pn9N7I24K8z6p975l/xF/3mGRP5+0iOO/pEqpVwK9pWST7JTjfFhTBJDArNKR/EJPv7iZ6J2Z2v3mO0uL/OWSQHe/ycfk509UMJsEdusVMz3giuH1T/XP5gv36Vq9dzHL9Gv0U+00x3d9qimXXcqUrM0uqwQOfKhvmLTWlKuXsStnueRNup8WabT6ZfhDfdNE9faE7SjmojLplPPcm3plp/mS/JZeaXNlFglMH+t89o7RpW+vJQk00TsTzTN1MjKXS/SWst+kN/mY/HyNCi5ZsrpVZ77LvvamOnJE0Kyrr1cC3cihGyX0XJ4XE6TEqUuuXyKFs5FbAhPTttXvqDc9mSdCl1NQu9/R3zyxWX/zi4Fk6rEP9Y9Gdl8NZ0Q7c+VjM/ihfrovM1KKBCbRlvMWEuiKzBLe2yfi1v1+rsAV893cN2jyL+2F1xEd73Twj81fztX6j09c4VvQuTp7iti6/+Uvv6tdh8IaS9wz6EblklG/1CnZHBJ476o+fHGbNU2z+4+ueLkXVlcCq/W333xO33Be//F7bzQyPeontR8w+W3Tzy8uNR+nHCO8d7v1ipme/tqLem/UpEcCSzv23D6q/Pe1IoEPHjyw7vcz07pLkbylnmPyM/cNmvx9+VmqZH35qR0xNPfs5auYI4F//tff0l8ZaXziW/pVX2YCVwL/ouY5/f0/OK9QS2bei9avWn/npv+H5xT8xL0XMY8EJqaKQ/p0Zjl1y4z69f7C/r78hbmd0vlZrI328Rf14VTmPZNIoEuxvN+RwCXIn7k4mkidEbViil96Xib/0kYEHdEx0Tj3teVl/brbFcDkBXp6tFvv1YX0zf9lImbmHrpPk1PITlTuGw1Xs0zJ2nm4kcBEOVZ5X9c36px7D1O4uxL4Xe2qe1uvO69ft6XWy5VNayo6S/QxOR2cKx+PBJryB+xIornXsHsOCUQCk+N/JSzWggSaSJ0RtcnJyaIKoCuKJl+Tvy8RwUUly5kOLlAC/+YH+1T3kx9aC0jSp4LNZd0VpH986W3Vvem83u9WLP2av2j9vqt/c9O/+bbei7gLNlYugfnq5t7/95P/byFjQYjbhMXamJRASY+u2tPJT3zXmmZGAl2K5f2OBKbISO6LgJmyTZe2Unw25azkApQ/rSM6ztRv+wH7/pl/Pua9Ny6Nwdyks3LXe0+cE5Uz9xE6IpW+YtiVwMTCkD92qzualneCvSuBeaaDzbmu+O36VAN/3GctaEldMbxYPmkS+FAaOPailc/fvv6m/iPrVDX3BOYfU7n6dP3uXwsS6C78cKWtFO/uwpGSXwIXlSz3nsAB/aLa/IG7T//j3v+XrXLe6WC5Ea7URSEmmStIuaZKE1kvuX6JFM5GHgmcb9VPzPfRP3yo4fRkS62buxL4Xz/VROs+a7FJ+orhxdqYIoGmHtdO6nsmelrzpn4aNKxd9p5KpvD17GdzTRJAAhMikvuiZRZvFOsewMXE0ZRTusUiqRJ43ywKSZkSle7P3VL3QGoEruU188se0snbSUZ2VG6bdu76YcqCEFcYXAlMWRiSk/Vi8pYs154Cflk7zYrdjFXKi+WTKYH3Hy7o3OtGhp3oaMb9ikig26e8J8dhPharLYFm8Yb7xV4K+fPmacop+WKRAiTLXhiSKXTSgiZGnGnYdEl5NKkPf2DfI+x9FMpigpS4ohdQv0QaayOXBCbFNNejVZZaN3sK+GX98F9TF4S49VgsnwwJNE+ZcRbS2N+ZSKDLslzf3e+KUtf/KystwHzx5PviLdUxMz1rVvEuJm/FPG7KK820cJoEGinrfkd/63lkypj1bKyv6xsvHrUeI/PhoZft4y+2JBeCmHTuAhEjT95FIo7oLU8CU6dxzbRw+pSwu0DEfAGlRx9zTQcn88kmgUZ8J/WetVAk26IVJLBUv1uVmu9qSqCZnjWreFe6CMQrevm2TTmmvJJOCxciWbPdqnvWvoXlL57fp18db9XJ99/WT8wjYp54Tr/oXsj6iBjNttrPz/vaizo5ZV+tXEFKmXI107rpU8KL1i91OthMLdtTwq4Eeo+/qX/7lqnrZv2FieDlWOCy5Lo5C0RMfimLRJwL8mL5ZJNAk9R9pA6RwJWazeqnRwJzRqfsv/rN8/yW+xiYVDGM6fVLDzV8+5E6ex9oR57nCZryTLnFv0hmkUATCauzI2HWI1PmbqnlwIv6S+uGaRMdq9Y3//OkujMeruwuENmsXb9PjRyaei9PAp1onBuVM49xyXhUjTMVbRaE5HzeYK58ckigGQOjn9oPyCYSWIJxt7QIWvHH++qUu5oSaKTMPM4ln7gV+5j72JmSXc4Wlay0aNSjWzr/ixedRR/2d8Ff1LysX3yRIxLoVNyNcLn3B7qCZEe8PN8p6QtPFq2fJ63z3Zb7YdFf11/9PyH9qvmq/WDrHFCXXDf3sTBPbNMv8ix+ydXGXBKoR5M6+a9GVtPYm/qmR1pztIHda4MAEphHAs1/9nD/80eq0BUeGQz1P5L3Uavj/ffyRhdNuav3n0Wci+fd9FW8q3NRrRQ5oB3rY/yslgSa/+zhPti52KKXLz8jnqbcVfnPIotdR2fvKeVfxi12PschsM4IIIF5JND8i7el/ieQfJK444u47qcNrPsTD/JKoCnXlI84rA9xoJ8rp59XSwLNv3gzC0LyCVupjplyTfn8QAAC5UUACcwjgWZKNp/cLenYJwsaT7+v49EjffLJ4tHE0kwJV87FFnGiL9fiGFgtCTQRuWI/E3Cp0mjKNeXzAwEIlBcBJDCPBK78sTD39cmdP6WNiD9pvP/+kuSytI+LQSDWokBQp/Ifl6slgSYaZ/7n71LFrZjnmXJN+fxAAALlRQAJzCOBS3449Pv39Grzfb38vje6F9N/T6YLoHR/Mv+iEG900ZSPFJS/FNCH66sPV0sCzcObTTSumHK31LxMuaZ8fiAAgfIigATmkcAlLQrxTvd6pnnTF4KYYbFwZ0GhPKuCvQJotk35CMT6Egj6u/z7e7Uk0CzOWKq0leI8Uz4/EIBAeRFAAvNIYLqUZfv81kRatG8urob/eSjnUVPJ0fDokT5KiRR6o4a5t5GC8pcC+nB99SESmPzaYwsCEFjbBJDAPBK4lEjgjkupj37J3t1/UucXhf/bOSKB60sekMXK6G8kMPu3IHshAIG1RwAJzCOBS7snMPu9f8muXvpCkPRII/cEVoYUIHfrqx9XSwK5JzD5rcsWBCCwNAJIYB4JXPrq4GyrgO0OKGQhSLoEsjp4fckDslgZ/b1aEsjq4KVd9DgLAhBIEkAC80hgQc8JfP+BOueSYK2tubj+exn3AboyyHMCK0MKkLv11Y+rJYE8JzDt+5ePEIDAogSQwDwSWPB/DMmxUtiVukLe+Y8h60scEMXK6e/VkkD+Y8ii1ztOgAAE0ggggXkkcDn/O9j8i7jph4+XtRDEK4lmUciq/+/gPGyQlsqRFvqyuH25WhLI/w5Ou7rxEQIQWJQAEriI6Jgp2f/937kf4eIVt2Jtm/JKNhU8e0tXB/vU1d2r3pEbujmX/QI4PtSt3qsxue8rE4VHujkxqO7uXvVNxBRLZ359WF29VzSRVpfo2IC6+sZ0M/38svh8Q/3d3erq7lP/lVFdnXrgtPuhJq8OWCx6r97S1OiAugendNvTpui1QXUPTOra1QF1mTwuD2voyqQmZ7P31cr6hjyLzW+1JNB825sp4YmJCV+fF2jKM+UW/WfhlsYGetV9eUBjtx5mz/7umAZ6hnXDfXfPujms7p7u1Ff/mCau9sr83mX8pKfPOIEdEKhMAkig5+Kb7WJw+eYjfeOwvxJoyjPlZqvPivbdGVNXuE3tnX3qHx5QV0dYkcHsD6QevtSm9v5bct+XVu6kusPdGk5ner1P7eFLGrw2qq5wu3pvpInH1W61tdnlJcqZsevaFhnQZHp+ZfF5TF1tbYr0jmposFvtbWF1XX2gyYEOtbV3q//KsLo6Lql/bFCRtg71fekyuaGe9jZ1jjzQZH+72sKX1Hflinq7zHavrqaJcoJXWTBx21jZ76spgQsLCxoeHvbtP4cY+TPlmXKL+3NLgx1tau8Z1uhwtzq6hnUnWwFfDqi9rVtj7rt7zt0pjY6OarTP/L5d0qDZnojq+tAlXRrJIoHp6d180t4ne8Pq5r/jpVHhYzkTQAKXcPH8ResDffOdu0v6f78rjQaackx5pbi4X+0Jq63ziqJpbY5FJ9Tba6JWveq7ds8q25U/9/3+w3vWX+UmMtU9MGXnMTetocsmXbd6Rq7rykCnLrS162L3gIZvey704726kE/mjASGw7pgBHLGTmcE6EI4LFsC72l8uE+dXZfU5ZRtIpQmwtZjRcpGdX1OsttxSZ1dfRqKGol+qMkRO113/xUNXZnSDW+dr0wnopLXr/Spa3DK/jwzqb6eYY3dndaV/l6rfW6bb5ro3NANi5HZNtFS+31Cg92X1HfdbbctgV1X7c8uR/N+oXdSdxN98EBDXR4BvtanC+FeXZmTLYEut7lRdba1q3dsSn1WX/Vp6ObDkoyTUoy99ZTnakqguRh9+eWXcr/YS/GfQbx5mnJMecX/GVN3W1i95i9Az8+j6VH1WRG+Po1OP5JceXPfPedam2Pd1neIq303Rro1MB6TdE9TQ71WpLB3aFKxm45MmiMTA+ruG9X0o2mN9tvRxL7Rad2fGlSn9Ue0yWNa06N9yfSP0gvmMwTKg4D7XVHq2n5lpQWYL57VvJAs/XExK4salu6xMLfUG2nTxcFYKsc5E70Lq2tkWjevDShyoVP9XyoRAXTl5cZgpy50XdH129Ma7Aqrc+SejFReuDSq67ejGh69oS+v9am97ZIGb9/TbU/E6u7NYV280KYL3WOWPBoxG5xyZUm6byQwMqDB3na1904pdueKLl7o1OCwvX9ybkqDZirn9pR6Im0yYmXJVOewJm5PWpEzs+/G1UENXpvW9eFLutAxqOuOUF2diam/s02dw/d0pSes9stTumnl1a4eV9q+NBG5SxqakW4MdOhCz5h1rt2+KfV2GHZ3bDG7NGYxNKJqoqV2xK5TPcNjGr/jtistEnihQ303pNvjfWq/0Ka2C+3q7LdlOmba396n8YeP7DJ7JhP5t0X6dPX2tMaMYIe71X0prEj/Dd2MTmncEl23PN5X8/vBW/ZqS6D5rjWPi7l27VpJp4VN/qac0vw80GRfuzVDYCJ5A9fvSY8m1RtuV99UTLGpPrW39+mGK3/ue3pl0iRwrLtN7QO3dGe4U20dA5q6O63J8Sndc9N/OaiOCx0aiC7IRP3a+6cUuzulvki7Ll8z7226dCWme18OqfNCt0bvxhSduqF76eXyGQJlQgAJTERk8l9EzfTs0h4evXwJNPmXZBrYamNM/Rfb1N6XJtM37L+A7SlcWxRdyfJOBxvpamvvUKSjQ5FIuy4OjllS6Ua6rItgSl4OT2tat129129YIhXpvaKeSKf6vZFCRwInZ0bVeaFTXZccGXT3m4je+LAV9bvYnpRAUz9TrqmbqUds+oaGTOSuq8OOPJr8wkbOzF/wRsLs9l2IuO0Iq3vU7Xc7IhcZGFNPu5HDJAtThiV6l8YS7+6+hAQ6YmhxsHi7EmhHDy4OTSfle+6Brl8btqIKZtr3/tyEJeLdV65Y0T5XTK0y29p0IdKpzt4BXYk+UvRqty5caFP7xV4n2unWn/ck+9VlsRYk0EzPmodHT05OlkQETb4m/+JPA6deOR/NTWtq+JLCbZc0et18V4XVfrFDHRc71N7eq4mEvCUjeSk55JBAVwYT51r5hBUOt6lj0MQNb2kg0qZwxC6rIxJW74S9z5oOfhTV4MU2tYU7dGloCglMgGSj3AgggUuUQHOBaZ+Il0wEjQCa/Et5ITPRPHOP2aAzjXj3+qiGrg7pYlunBk0Ea25KPeGwusczI4FW1M9E6Qyv2Qe6PWdL5cVhe/r47uxD3c8mgVETYXPzv2FF8touDqcu9kjIniNb7rSws39s5JLaOod1feahNXXqlVTDy5ZAcy+dkbpZ3Z0aULuZRjUC2n5J/ZM3NDltpodT6xybeeCZlpViY73WFPSFi8O6kXLuI431hnWhZ9KWwK5RxR4+0vhlTyQwhwRacmpFSI2EPtLElSu6atXljvo67Hv/TBtMXtb0d8egbjhj0pJAdzrYO05nZzV2uV1tGWWurvyUcuyWU95rQQLNhejBgweWqBU7ImjyMwJo8i/Zz6OoRq9MKmamWe8MqsNIYHRYnW2dumKF3R7pwdzDgqeDXfkzUb5w35RM9o8WHuqRK5N3hq0/RIfvxDRsZg/swvRo7oEeOmKYvCfwkR5MX9GlcLsGSjEjXjK4ZAyBJAEk0HtxXcK2idSZKdti3SNo8jH5lS4C6BWDexrrN/fttdnTLBc61HPtriYGO9Vu3ZMXVrszZWvEyhsJvH9nQt0R85evuXevXT0T84pNDSpipnnNvotG0pzFHGF7Stm+cN/Tld52tV0w6cKKdA+ou6NNkb4bSQHzSOD9uQeK3nXudXP2T5h7Ci+062Jnpzo72hPTwamRwDtWpPNCR6cudnUq0mEkcEJd7Xa5F8Jtausa1ZdTw7oYdupsbhiPevk4EjxmL8qJmXPd9O3dGjaifMNtc7sudixNAu8/NBLZrraOXvV2d9jsTYTPTGe70+bWdHRSCg27TAmc19VeWxZNH5iFJuUkR+ulrmtFAs3XvInUmSlbUyeziMN7P1+h2ya9ycfkV+oIoGJj1syBWTDW1hZW53BUj/RI0eFOhS+EFW4Pq73riqZdeXPfk9c2eytHJFD3xtTd3mblEzYRRSvK2C0zue1OFd+4OazOxDmXdOX2A42Z+6ovhNV5+bI6w3Y9whcH5d5zmF48nyGw1gkggUsQv2wXL7N4w6ziXe7jY0w6k75Ui0Cy1Xm97YsOufcxxuz7BNMjkOl9byKZ1r15XjFke72Nm5W2dy1JoHsBMos3zCpe93EuhQigkT+TzqQvzSIQt5a8QwACfhNAAtNFoIDPJnpnnudnHuxs/sPHUlYGm/PM+SadP9G/dSwxczFrVbG1orl/bNHn7F0fGUisjl6pCJB+/Y67tSiB5sJiondG6IaGhhILR6ampjIihOYcs99d+GHON/tKHv3z++pHeRCAQOJJAqVGUfarg/Nd1M1/9jD/Ys6InZnaNff3GdEzUmjezWez3xw35/GfQNavIOQbRxyrjHGxViXQ/ZI3/1nE/Is5I3Zmatfc32dEz32Zz2a/OW7OM+fzAwEIVCYBIoEFRP64SFfGRZp+pB9LOQbWugRW5qWMVkEAAsshgAQigSwuYAwwBoo4BpDA5VyKSAMBCKwGASSwiF/+pYwukDfRK8ZAeYwBJHA1LmWUCQEILIcAEogEEgViDDAGijgGkMDlXIpIAwEIrAYBJLCIX/5EasojUkM/0U+lHANI4GpcyigTAhBYDgEkEAkkCsQYYAwUcQwggcu5FJEGAhBYDQJIYBG//EsZXSBvoleMgfIYA0jgalzKKBMCEFgOASQQCSQKxBhgDBRxDCCBy7kUkQYCEFgNAkhgEb/8idSUR6SGfqKfSjkGkMDVuJRRJgQgsBwCSCASSBSIMcAYKOIYQAKXcykiDQQgsBoEkMAifvmXMrpA3kSvGAPlMQaQwNW4lFEmBCCwHAJIIBJIFIgxwIt6mkwAACAASURBVBgo4hhAApdzKSINBCCwGgSQwCJ++ROpKY9IDf1EP5VyDCCBq3Epo0wIQGA5BJBAJJAoEGOAMVDEMYAELudSRBoIQGA1CCCBRfzyL2V0gbyJXjEGymMMIIGrcSmjTAhAYDkEkEAkkCgQY4AxUMQxgAQu51JEGghAYDUIIIFF/PInUlMekRr6iX4q5RhAAlfjUkaZEIDAcggggUggUSDGAGOgiGMACVzOpYg0EIDAahBAAov45V/K6AJ5E71iDJTHGEACV+NSRpkQgMByCCCBSCBRIMYAY6CIYwAJXM6liDQQgMBqEEACi/jlT6SmPCI19BP9VMoxgASuxqWMMiEAgeUQQAKRQKJAjAHGQBHHABK4nEsRaSAAgdUggAQW8cu/lNEF8iZ6xRgojzGABK7GpYwyIQCB5RBAApFAokCMAcZAEccAEricSxFpIACB1SCABBbxy59ITXlEaugn+qmUYwAJXI1LGWVCAALLIYAEIoFEgRgDjIEijgEkcDmXItJAAAKrQQAJLOKXfymjC+RN9IoxUB5jAAlcjUsZZUIAAsshgAQigUSBGAOMgSKOASRwOZci0kAAAqtBAAks4pc/kZryiNTQT/RTKccAErgalzLKhAAElkOgrCTQVJYXDBgDjAHGAGOAMcAYYAwUZwxEo9Hl+GNBab5S0NlZTvajklmKZRcEIAABCEAAAhCoWAJ++BUSWLHDh4ZBAAIQgAAEIFCuBJDAcu056g0BCEAAAhCAAARWQAAJXAE8kkIAAhCAAAQgAIFyJYAElmvPUW8IQAACEIAABCCwAgJI4ArgkRQCEIAABCAAAQiUKwEksFx7jnpDAAIQgAAEIACBFRBAAlcAj6QQgAAEIAABCECgXAkggeXac9QbAhCAAAQgAAEIrIAAErgCeCSFAAQgAAEIQAAC5UoACSzXnqPeEIAABCAAAQhAYAUEkMAVwCMpBCAAAQhAAAIQKFcCSGC59hz1hgAEIAABCEAAAisggASuAB5JIQABCEAAAhCAQLkSQALLteeoNwQgAAEIQAACEFgBASRwBfBICgEIQAACEIAABMqVABJYrj1HvSEAAQhAAAIQgMAKCCCBK4BHUghAAAIQgAAEIFCuBJDAcu056g0BCEAAAhCAAARWQAAJXAE8kkIAAhCAAAQgAIFyJYAElmvPUW8IQAACEIAABCCwAgJI4ArgkRQCEIAABCAAAQiUKwEksFx7jnpDAAIQgAAEIACBFRBAAlcAj6QQgAAEIAABCECgXAkggeXac9QbAhCAAAQgAAEIrIAAErgCeCSFAAQgAAEIQAAC5UoACSzXnqPeEIAABCAAAQhAYAUEkMAVwCMpBCAAAQhAAAIQKFcCSGC59hz1hgAEIAABCEAAAisggASuAB5JIQABCEAAAhCAQLkSQALLteeoNwQgAAEIQAACEFgBASRwBfBICgEIQAACEIAABMqVABJYrj1HvSEAAQhAAAIQgMAKCCCBK4BHUghAAAIQgAAEIFCuBJDAcu056g0BCEAAAhCAAARWQAAJXAE8kkIAAhCAAAQgAIFyJYAElmvPUW8IQAACEIAABCCwAgJI4ArgkRQCEIAABCAAAQiUKwEksFx7jnpDAAIQgAAEIACBFRBAAlcAj6QQgAAEIAABCECgXAkggeXac9QbAhCAAAQgAAEIrIAAErgCeCSFAAQgAAEIQAAC5UoACSzXnqPeEIAABCAAAQhAYAUEkMAVwCMpBCAAAQhAAAIQKFcCSGC59hz1hgAEIAABCEAAAisggAS68K6d1wcffpD19VnfjGa6PlDd6w06f9dN4H2PqqUuqOBve7w72YYABCAAAQhAAAJrlgAS6HaNRwLf3hdUcM8BNThSaEngF4cVCh3QmaidYOzUXo/0IYEuRt4hAAEIQAACECgPAkhgln7q+W1QwboWOb5nnxGf08zMnOKPzce4wkeCCv4mrJmZGc3Fs0jg47jmZmY0MxvPUgK7IAABCEAAAhCAwOoSQAKz8M8qgb1HFQzWqSU6rZb6oILB5Otob5oE3mjRgVBQoVf3ak8oqD2HzytqyWOWwtgFAQhAAAIQgAAEVoEAEpgFen4JNAnSpC/l86Q+3hfUnvc6NWdOfdyv43uCauggIpgFNbsgAAEIQAACEFglAkhgFvArksCZ83rbRAn/a6/2vm6/QruDqmtOmVzOUiq7IAABCEAAAhCAgH8EkMAsrFckgQthNQSDOvCHSet+QXPPoH3fYJaC2AUBCEAAAhCAAARWiQASmAX8kiXwN2HNzc4pnjIdHFfnb8zCkpMauRuXFqY1cvaM+q254SyFsQsCEIAABCAAAQisAgEkMAv0xSVQijYfsBeH7K7TZ9fT7hGc69fJn4cSi0dCPz+uzuksBbELAhCAAAQgAAEIrBIBJHCVwFMsBCAAAQhAAAIQWE0CSOBq0qdsCEAAAhCAAAQgsEoEkMBVAk+xEIAABCAAAQhAYDUJIIGrSZ+yIQABCEAAAhCAwCoRQAJXCTzFQgACEIAABCAAgdUkgASuJn3KhgAEIAABCEAAAqtEAAlcJfAUCwEIQAACEIAABFaTABK4mvQpGwIQgAAEIAABCKwSASRwlcBTLAQgAAEIQAACEFhNAkigQ//27dviBQPGAGOAMcAYYAwwBtbKGCi1ICKBSCDyyx8AjAHGAGOAMcAYWINjAAmU5IeputZfauDkDwEIQAACEIAABPIR8MtJ/PCrr+Rr6FKO+VFJv4Avpb2cAwEIQAACEIDA+iXgl5P44VdI4Podx7QcAhCAAAQgAIECCSCBHmB+mKpfwD3NYhMCEIAABCAAAQhkEPDLSfzwKyKBGd3LDghAAAIQgAAEIJCdABLo4eKHqfoF3NMsNiEAAQhAAAIQgEAGAb+cxA+/IhKY0b3sgAAEIAABCEAAAtkJIIEeLn6Yql/APc1iEwIQgAAEIAABCGQQ8MtJ/PArIoEZ3csOCEAAAhCAAAQgkJ0AEujh4oep+gXc0yw2IQABCEAAAhCAQAYBv5zED78iEpjRveyAAAQgAAEIQAAC2QkggR4ufpiqX8A9zWITAhCAAAQgAAEIZBDwy0n88CsigRndu5QdUTV+J6DAa5GlnLwGz3Hq/51GRddg7agSBCAAAQhAYK0SQAI9PeOHqfoF3NOsRTaRwEUAcRgCEIAABCBQkQT8chI//IpI4LKGaLlL4LIaTSIIQAACEIDAuieABHqGgB+muizg8ahaD+7Sts1VCgQCqtq8TbsOtioa91Q+1qOm13aq+smAdc7GrTtVe2JI855TzGb0XL12bt1on/NsSKcnxrNPB0+1qv771doYMPltVPX3a9U04ObWo/qnAqpKm0LueWuLAoEq7e/wFmqfW3NkyN4ZbdWhH21P1DOwYZNqvl+vVs9cbvTYDgUCtWoO12ubac+T1aptiSn7/hG7/mnTwbHeJtXmrL+pSkS1gYB2vN+qphc2qSpQpU3fbpBVy6hpe402bTBtr9Kmp3eq/oyngt7msQ0BCEAAAhAoUwLLcpJltNUPv6rMSGB8XI3PG/nbqO2vNar5TLMaX9tuyVn1GxFb8mYjqt0aUGDDNtUea1brmSYdeqFGVYGAql9zzpEUO7XL2rfx2/VqOtOqpoO7VPP0Du14JvWewPmOetVsCGjjt2vV+HmrWj9vVO23jThWqzZsi2DktSoFnqpXT2IwOBHFQEAJ4TPHeuu1JbBF9b2SZpsV2hBQ1dO7dOhEq1pNW97YqWojmlvr1eNIrS17Vap6cpv2n2hV87FGRablSGD6/sx7AufDtVaeVd906n/ikHY9bRgm6+9KYNWGKlX/e4OazzSp4dSQNB9RrRHcb76kBquOTTr0/WpLBkNnXAlONJoNCEAAAhCAQNkSQAI9XeeHqRYKfP5MyIpShVpSBWToyDZt3Fqr5pjU86aJwO1Q44SnMZKGDm9TILBNDaOS4k707vlGjXsiiPPnarXFSFgiqjeuhmcDqtrdrJjnPGlezburFHi2QeOS5ltCdplTTpmx09oV2KLqrVUKvHBaMWf30JEaWxbjUvSTkKqf3KFGN41zzvi7pp7J/bYEBvTS56ltzr4/TQKddga+k9pOxYd06NlAov6uBAaeOaQhbzvDtQoEtqeyNGmf2aiEdKdi5hMEIAABCECgLAkU6iTLbaQfflWRkcDIG1UKbKhVxCsqKb1gy11gd3PG1K+mm7TTjcwNN6gmEFC6TEpDavBGAicatT0Q0PY3Tqv1jInWJV9Nr9QkZc2SvoB2nXJ0L1yrqkCtmk7s8tTXFrT0aeOU6psPlnjVqGHYPmLLXlIK3fOz70+TQCvymK2dUuzETgUCbjn2dHBSfp1SRhu0zURQ/71BkdFUCXXrwTsEIAABCECgEggggZ5e9MNUCwMeVdPzAZmoVu470myZSZmCTbTJIzppopU4RTGdfsETCbTOs+8rNPcfZr7ce/4c+XLk04r4mQigJZGOaDmimCGeszGNX2pV64kG7d+dvI+xNmzXKrvsudPB6XKYJoE52+nKZkB2OR42SRgmxqmeg/Z0u9X2J6u1/UeH1HQpdw+kJOcDBCAAAQhAoEwIFOYky2+UH35VgZHANMHJyn+lEmimeTMl0BWyrEU6Oy3xs6KUtqxuf99MFNuRyR3Ho86U8S6ddueGZ3t0yLq30F1wUaPtP6pVw2smQufKWS7Zy7U/jdGKJdBp3Py4ek40KJRYIJJ6f2U+LhyDAAQgAAEIlAMBJNDTS36YaqHAc04Hd+zXxs3b1TC8+HSwJWdLnQ52zsseWfTAMpvW1GuNGi41K+Qu/rDuHQwo8EqrWs3iEc/9ge69i4cuuVZo52ffX1gkCVx0Oti93y9XJDCtjeZjPKbmV8x9lx6hzXIauyAAAQhAAALlRKBQJ1lu2/zwqwqMBErZF4bMq9VIiXOvoCtX2ReGVOvQgOm2IR0yK4jTFky4K2mT98bZC0MCT9Wqddbb3XaZVZtD1mIU60g8otoNAe34wU5VBUJqdm6hix7focBT27TtqYB2HHOnUZ2I3T81WgtLEjkbwTILTooVCVxsYcjWQ/ZjYJxHxCTbbddo/PguVT+5U03TiRpaG0OHzf2QSGAqFT5BAAIQgEA5E0ACPb3nh6kWDDzxiJhq7TzYZD1WpeFl8/iXKpkpV+tniY+IcYXPffRL87svWY+Cse59S6wOltzzAk9uV715TMrnjdpvPXKmSjuOmSlf98eZSjb3Dj7flLxv0YnGJVYmO6f3vGU/aqXmZfNIFnNP4CHtenajqp7caD26xp2CXtE9geauvgIeEZMugZpq0g7nMTb7rcftJB9jw+pgt995hwAEIACBSiBQsJMss9F++FVFRgIt3mkPizYPgq4/50bYnB7J8rDo+s/HM1YMx3obFfqmeTiy/dDp0LFmHcryv4PnB7wPW879wGTz7EEjkSnTx/FW60HMgWechy+7g8a0483kQpCNW7cr9G5E0ah5vExA2961BXOlEmiKy3xYdL2aU1b75pkOHm1WredeQPNw7tCxnrRH5riN4h0CEIAABCBQngSQQE+/+WGqfgH3NItNCEAAAhCAAAQgkEHALyfxw68qNxKY0W3sgAAEIAABCEAAAisjgAR6+Plhqn4B9zSLTQhAAAIQgAAEIJBBwC8n8cOviARmdC87IAABCEAAAhCAQHYCSKCHix+m6hdwT7PYhAAEIAABCEAAAhkE/HISP/yKSGBG97IDAhCAAAQgAAEIZCeABHq4+GGqfgH3NItNCEAAAhCAAAQgkEHALyfxw6+IBGZ0LzsgAAEIQAACEIBAdgJIoIeLH6bqF3BPs9iEAAQgAAEIQAACGQT8chI//IpIYEb3sgMCEIAABCAAAQhkJ4AEerj4Yap+Afc0i00IQAACEIAABCCQQcAvJ/HDr4gEZnQvOyAAAQhAAAIQgEB2Akigh4sfpuoXcE+z2IQABCAAAQhAAAIZBPxyEj/8ikhgRveyAwIQgAAEIAABCGQngAR6uPhhqi5w3m8LBjBgDDAGGAOMAcbA6o8BjwqVZNMPvyqrSCCDfvUHPX1AHzAGGAOMAcYAY+B2ScTPmykS6KXBNgQgAAEIQAACEFgnBJDAddLRNBMCEIAABCAAAQh4CSCBXhpsQwACEIAABCAAgXVCAAlcJx1NMyEAAQhAAAIQgICXABLopcE2BCAAAQhAAAIQWCcEkMB10tE0EwIQgAAEIAABCHgJIIFeGmxDAAIQgAAEIACBdUIACVwnHU0zIQABCEAAAhCAgJcAEuilwTYEIAABCEAAAhBYJwSQwHXS0TQTAhCAAAQgAAEIeAkggV4abEMAAhCAAAQgAIF1QgAJXCcdTTMhAAEIQAACEICAlwAS6KXBNgQgAAEIQAACEFgnBJDAddLRNBMCEIAABCAAAQh4CSCBXhpsQwACEIAABCAAgXVCAAlcJx1NMyEAAQhAAAIQgICXABLopcE2BCAAAQhAAAIQWCcEkMB10tE0EwIQgAAEyodA6OyPxQsGpR6xSGCpCZM/BCAAAQhAoEACCCACaMZAqX+QwFITJn8IQAACEIBAgQSQQCQQCXR+afww1QJ/PzkdAhCAAAQgUDICSCASiAQ6v15IYMm+Z8gYAhCAAATWIAEkEAlEAp1fTL8kcKbvM33w4Qee10m19EYVf+zXN8SMOhvrtPfIec34VSTlQAACEIDAmiOABCKBSKDza+mXBEab6xQM7tGB39giePTgPoV2BxWs/1hjc358R8zo/OGQQm+dUdSP4igDAhCAAATWJAEkEAlEAp1fTX8lsE4tXgO70aIDu4Pa89sexT1fFfHZGc3MzGjOu3NhTjNmx+O45jzH7HPnUtKbrOJzTh4LyYytfbN2piadlX98LrOsZBK2IAABCECgwgiUTgJ/pt/fHFP0wU0NXjuS+zE07Y1qnb6pOXcm7PGc7t3r1O/bSyBn7SfUOvFR7rqkPy7nyrDm4sP6JH1/qT7fuCk9nlTrkvI/r+uPJtW2pHMXZ1nqYe2HX31lpY3wo5KmjnYkME0CJfX8NqhgsEFhI2uPozp/eI+CwZD2vBpScPdeHe2wJ2+t9Hv2qW6vOT+o4KtHdfLDvfZ2MKjQYXeaN6rzv07uD+7ep4/HbUpWWXUtiiqqlrqg9tQf0D4TjTT5hQ7ojFdQVwqW9BCAAAQgsCYJlEoC37150xOQuKlIVlk5osiDuOJzPfqk+2e2nHV+pLbpfrVdXlxcCq771WHNPQivXQk0knrthOqyskrnEVZUubimn7v451IPTj/8quwl0CuHM2cPKLi7QWHnpr3oH+qsz50LrkQe1nlz7HG/ju8JKng4LDOTPHfhsILBA2q5ZXfp9MiIpq2A34zOvBVU8L1O60C6BAbrPtOkOS/eqaO7g9r3Byyw1L8U5A8BCEBgtQkULFJLEZTLPZr2NmyhX03Z0o2NKf6nSbXljfo1KnKnU59c7dH12Ul1jdhC88uRsK7cu6no7Ji6Ruo9YldvRyBnbyoa80QUB5vVNTMjLYyp6+Z5fdKTQ4ysyOSkorM3NX73ZkYk8N2xHo2bvDPKtevZeq1f12dv6sr1I/rlSKd9rrceZ3+suoEzGrTqPpkaJR0MazwW1u9cVmM9unL9hFqnTX0mNTjZ6BFEJNA7xMx22Uvg2CkTtXtb52fiCh8JKmhF6pxm3vhM+4JBfdDnSuBR9ViH7Ehe8Lf2J/UeVTDoiTI+jmt6vF+dZz/W2/uSeWZIoJveiQwm8kunzGcIQAACEKgYAkWXwPZTuvLQg+fxTUVyRPV+f2dOWjQyd0pX4nHNPRhT140ztrwN9uve45vqGqy3hOr6wxkNDjpSN9Kj8bvn9fvBRv0xNqf4vTNOhPGIfvfltDTXo98Nvqd3sornz9R639xmdV5Nl4+oKToteaaD6yYnFX84praRRv1upFPRx3O6csWVSbue96ab9bvBZo0/NHXu0eeDJxQxed495YjqL9V2d1Jdo3Ye049ndNmte/r0800zPTyty9nOPYsEekaZtVneEvh4RMdfDSr41hlrxW7ne0lhs1o3/rH2Bvfo+FABEjjXow/2hrT3lx+o5UKnTv4ymScSmD58+AwBCEBg/RFYiQTWDTQrcrNTrcPOVO5Ze3o3STGu6M3c9wNmSqC5zy2u+KO4rk955WpOV666n38sky7+oF9dNzut1+ADU07yuN2mn+mdiTHNLfQnI2tGqvJKpxGraV12o4RpUhaZlaZvum2165GUOyOBSSmMPFCyTrnK7Tyiy3PS9Umn7mnlhVLS/Uxdc1L0htvOM7q+ULz7FZN9VpotpoM9XO1p3336eMQs2JjWWN8ZffBGUMHdB9Rywz5x5tzbVkTvs2txKT6jzt/uUXDPcfU/LkACraigiSyaad5JfVaHBHq6gU0IQAAC657A8iXwM40/cvEZSavXJ3dTH29hBCnv/W2Tk9KjMX3uTn867yafpNSlypWprzk+N3NGvxtsTLze7XTk6PJ5XV+Y0/SDm7p+f1pxTyQvVapcmfK+p0XX0qQsRezO/ljvmMjirHuPYWo9U85Nk7lPbk9rbmHamlKOmlu8XIFNKy+9vil5nv2Z3rl8OD/fNK75+trtyVK9I4EesrYEOoswzEKM3SHtO3hSnbe8S4Dn1H+izn50jDln72G1jNq/YHb6JUwHW5FAp5y9h/XxRwcSU8xEAj0dwiYEIACBdUognxjkP3ZG190VvYbd47hnIYgUfxDWu4tKyEcaXJAtdInp2Z/p81h+Cay7Pqn4fE8i/7ruw/qlU5Y3Wld3bbJACTRiG9f4uB3tS0/fND2j+EyzI15H1DUX13T0sDPNu0QJHPGuOD6iy8uWwHq9O3gk0e78feUV3ezbpR7+SGCpCZM/BCAAAQhAoEACK5GHOrPaNlt55j5Ad0p1MRFsP6Gu2TnFjUSaqWDz/vCmIu59cmdT5cqu7xG13TNp5nRvYU7xh5OKDNhy886Nm4rHpxV9MK3ovbSFHSbS9icp/mhGg57pZS8Da1Xzn+y6TN+d1D1vJLH9lAbnTXkzumfuU7x3PiGiobR6pkTtUiKB5p7JuO49uKnp+ZuKzi8zEmhkUnO64iyU8bZhOdvZurGY+5DAYtIkLwhAAAIQgEARCCxHGLxpUh8FYypkpoaT9815z2U7exRuLXApwlDKmwUSmBcPByEAAQhAAAL+E1i5gPzMcy9g/oUgKy9r7UpUubet1CMPCSw1YfKHAAQgAAEIFEigOPJyRJHZOd27694vh6wVh6t/HAscNgWfjgQWjIwEEIAABCAAgdISKDdZob6lEcPSjjIJCSw1YfKHAAQgAAEIFEgAqSqNVJUb1wKHTcGnI4EFIyMBBCAAAQhAoLQEyk1WqG9ppLW0o4xIYKn5kj8EIAABCECgYAJIVWmkqty4FjxwCkxAJLBAYJwOAQhAAAIQKDWBcpMV6lsaaS31OEMCHcIM4NIMYLjClTHAGGAMMAYYA8sbA0ig/JmzZoAub4DCDW6MAcYAY4AxwBgozRhAAn2WwFIDJ38IQAACEIAABCCQj4Ar1fnOKcYxpoMdin4BL0ankQcEIAABCEAAApVLwC8nQQKdMeQX8ModsrQMAhCAAAQgAIFiEPDLSZBAp7f8Al6MwUEeEIAABCAAAQhULgG/nAQJdMaQX8Ard8jSMghAAAIQgAAEikHALydBAp3e8gt4MQYHeUAAAhCAAAQgULkE/HISJNAZQ34Br9whS8sgAAEIQAACECgGAb+cBAl0essv4MUYHOQBAQhAAAIQgEDlEvDLSZBAZwz5BbxyhywtgwAEIAABCECgGAT8chIk0Oktv4AXY3CQBwQgAAEIQAAClUvALydBAp0x5Bfwyh2ytAwCEIAABCAAgWIQ8MtJkECnt/wCXozBQR4QgAAEIAABCFQuAb+cBAl0xpBfwPMN2cjBGtW8fFrRfCetmWPz6jm2X4c+H18zNVq8IlGdfrlGNQcji5+62Bkdh1TzzCEVnpNdh5dOlUcvL4aB4xCAAAQgUHwCfjkJEuj0nV/A8w2VyGsBBb7TWB4SGDutlwIBBbYe0lC+Rq2pY1E1fiegwGuFq1tGM8K1CgRqF5XAoSPbdajDm9quw45jK5TAWLNCZfMHg7f9bEMAAhCAwGIE/HISJNDpCb+A5+v4spJASbHhHg1N52vRWjvmtwRG1fR8QLVhL4ciSWDHflWVyx8M3uazDQEIQAACixLwy0mQQKcrlgU8Pq/YdMx6zcez9OmsfSw2m+WYs2s+lkyfUwLdfOY9+ZiyY94d9jGTX0Zd5mNKqYObX3q9TJ5ulibNtPNh3pOnSeucZNU9PQ9TjVz5S5pPFCDNG3ZueSadVWbaPk+TvZtWWrd+7gFvPbPmlUMCE/3orYybaY56eSOBbvoMFj2qfyq/BHr731OivenmO+3h75wUO7Vr6VHjRD7Z2+fWIaUvnHIS/eXkkTK2nH5O2ZfRCHZAAAIQgEChBJblJIUWIgkJdKAVCjx6rl7bnwwo8GS1ajZXKfDkdh265Fxk4+NqerlGVYGANm7epKpAlTa90KAhryTM9ujQtzcqENio6meqtfHJndpppiq90Z3ZITWafDZsUs0zNdq0YaO2H+yRVcpog7YFtqi+19PrU43aEQho54mYZ6ctIrtOxaRYRIeeN/UJKGC9Nmr7YSc/k8KIzTMNioRrVW0d36HGKSl6bIcCu5s1dGyHk9ZMg2YRqkXbbacJfT6kxuer7DpYU7PzirxheBkWpp1VqtndnH1afKJJO58MqGpzjWq2brS4NwzY3O16Niny7k5t9LRx53H3vsW0OsdjihzcoU0bXB4Bbfz2IfUkXClPvRwJbDz1kmoS6T08zT2DZlwk6uFOQ9t12HG4yel/u+yqp1/S6alkt42fCGmbGV9O+uRxc09htad95hy7n5Kp3a15DR2z62d4VRtuppwJ57gZD9YYrNKmzfZY3PZas6KJk1vdWwAAIABJREFUP2giqg3U6NAnjRZzqy4bdqhxIub0l1O/J3eqyc3TLZp3CEAAAhBYNoFCnWS5BSGBDrmCgA8bAavSjvdduZBiva2KWLd5zat5d5UC3zmkHtfF4uOW9FS9cFr2ruznNKRIoH1O1fONGncvyrMR1W6tkiV0GlLDMwHVHEnekWckaMtTWxT4QZNTjqTeem0J7NLpmDTfUa9db7YmLvLz52q1JbBNDaMOBEtstqj6+/vVOpqMBFpy9dQWbfv3RvVMuZHANKFS9jYZ2Uu2206z5alteulYj6JuJNBMbQZesupo1SQeVU9vtnvm7OnVmoM9ifFupqTHHbm26hnYqJ3HhhLR0PH3jbi6kpRW5/mI6n9Ur1ZXvmZbVftUQNvedfo1X70sVlXa9kaSZ+zzkKcsU0UjUdkjgYGtL6mx1xkg8SEdejagqsS9ilE17Q55jo9b9zJW/Wer/QeA+evNiLn3D4YEkeTGfIupT7Vqz7kDUYqGW+0/RuJDang2oC27TyfGg2Ktqt0aUPVbLl+7/t4xOHR4m6qe3Kjtb0YUM+MyPi5r3CbGdrJ8tiAAAQhAYHkECnKS5RVhpUICHXiFAI+8YSQvxwKOaJN2BKrS7gOTdMnIWI0ahs3NdKe1KxBQqCURcrJqkTIdbEX1nPM9HTz+/nYFnAvu0JEaTz2M4FQpdLxRuxzpM8msc7xS6MkrQ1Issdlm19FzniUcG0Jq9kYy0yOBS2m3k6Zqd3NCZqxizplFFjuSMuopO3VzXI3/FNCWV1ptAUk9mF2M4q2WiO04bqQyTQLT0puPVh+4MpavXk4kMGWJyXyzQinSl1sC0xeGpPZlZsXSpS/9c5YU1v2ISbFMO8MSXFeOk8diJ3YqEAip2RqaWepvtXu7Gj2RP3t87F90kUyyFLYgAAEIQCAfgUKcJF8+ix1DAh1CSwe+iEhYF8nMi6srftYigRznpEigdU5yOtCdFrTen2+yp0qHG1TjRrmmm7RzQ0it8zGdfiHgRAvtuqZOD0vzoz1qPdOkhjd2aZtXWqwyM1e8ZheONA452pTSbkfC0gXIRJOafmCmI6u06fmQGj4fyip5pqvmw/vt6dcnt2nXG42KuFG8nNExu55VbxhdS6uz+9sxO66eM61qene/dj3rTtvaUa6c9crKKl2a0j+bAu06pDPIyng+qqFwq5qPHVLo+S0e4V9KJNAuO70ct8lWedlWN1uRY3f8Zql/ln7OmZdbGO8QgAAEIFAQgaU7SUHZZpyMBDpIlg48h0i4aLNcJK1DVqTMmRrMcU6KBDqRmqZss6JuWc6UsJkeNhEcd7rQiuaYaJsVTdypJmcF7/xAg3Zt3qRtP6pVw4lWtZ45pJ2llkBvu3MIkNuc+YmIGo2YmnvXXNF1D3rf4zENfd6gkHV/Y7X2d3juCcyI0DrRQ2uKM63vZofU8MImbXp2l2rfbVLrmVYd+oFHAp0ys9arlBIYj6r5tW3atHmHQgcb1WwE9RVv1LeEEpgSIUQCvcOObQhAAAJ+EVi6k6ysRkigw68Q4D1vbbEWUCTvxvN0Qo6pXns62Imw5Jg6TZFAK58qhc6kThl7SrI2rbrsblTjC55zTVQwEFLjMe8K0nHrHjDvfYzZp4OXGQlcSrsXkcBE2wYOJSOciZ3ZNubV/O9JacsaTbNYuFPvqRI4/u42K7qWuOcyfTo4vUhvvUoogfNnQqp6qlatnun39Lalf06vqmRHhM2CnqwjyIr4Zd5uYP0BsaFWEes+VCQwkyt7IAABCJSeQCFOspLaIIEOvYKATzVpx4Yq7TjS49wcP6+hEyGFTpiwnVlRWq3A1pCaJ5zL73RE9ebG/8QFOaYmE3Eyi0dMlC4+r/HPa7XtSe+9hm4+L6nJWf2q+XFFDu5S6JPkjf7Wwo+ntmiLNRXsDgWTf5WqNgSUnA60VwlvcxeSxGPqcVbRJp5jl1VsckWdUoVqae220yTr5NR3olmNZ8aTiznMKuSn6mWWJ8yH67X9mV1qsqZ959VzoslmZpJaC2XcqW+nnmYhxBmHz/y4mv/T9EW9eiypSa2zJdDPNmjIWXgT622wV8G69wTmqZe1kjpjOjVdmuzPO8xCk3hUQ6NmPGRn4JU66/Ev3nswp5pV+7R3bDhtNaJoFn0PD1mLO1JZmYVA+1UdqFboc4ettRp6l+qtyKlZZFOlqucbEjznh5u0yyyMccdItoUtWaLYVt0zWLhjkXcIQAACECiUQEFOUmjmnvORQAdGocDnLx3SjsQjQMy9bPVqdadu41G1vul99MhGbX+tObnK15QZbVbts+Y+OHPfn3n0S0TjJ7yROyOHmfls+1GDIh4HlGy5c6eC3b61b/B37+2y90Y/sR8XsnFrjTZt3q76c0M6/e+eRSwrksDs9U1td3YBmh9oVMiw2LBJm5zHmDQ64mtF6wLVOjSQmr/96B2zSjW5OteSkX/ar4bXtiUeobLx255+cQQs8R9Dpk7rJSNX1mN+Nll5DZ16KbFKN1+9liaB8+o5uM15rE6Van7WqtgSJFDzzuODzKOBtm5SzcuNGgofUrV3qtvUfav7iJYdahqVUlg5A2H8lPdRMxu1bXdj8lFF5hFEu5OsAhtqtOtdzyODkED314l3CEAAAr4SKNRJlls5JNAht2zg81kn2xL9MT+b/7gWSe9mtGg+7omLvZuH/mZ7KvBi6Qo8vqz6mgc8Z8GVDdF8+oOijVd7H5sSn09EFheretYHbHsT5aiX95S8296HWOc9Me3gbOZDotPOSHn4tjmWjZWVJucBO8d5z9Rzehl8hgAEIAABfwks20kKrCYS6ADzC3iB/cPpBRBIkcAC0nEqBCAAAQhAYC0R8MtJkECn1/0CvpYGWaXVJWr+e8fLp7P/p5FKayztgQAEIACBiiXgl5Mggc4Q8gt4xY5YGgYBCEAAAhCAQFEI+OUkSKDTXX4BL8roIBMIQAACEIAABCqWgF9OggQ6Q8gv4BU7YmkYBCAAAQhAAAJFIeCXkyCBTnf5Bbwoo4NMIAABCEAAAhCoWAJ+OQkS6Awhv4BX7IilYRCAAAQgAAEIFIWAX06CBDrd5RfwoowOMoEABCAAAQhAoGIJ+OUkSKAzhPwCXrEjloZBAAIQgAAEIFAUAn45CRLodJcLnPcfCwYwYAwwBhgDjAHGwOqPgaIYZZ5MkEAkEOk7u/q/6HzZ0geMAcYAY4AxkD4G8vhbUQ4hgUXBSCYQgAAEIAABCECgvAgggeXVX9QWAhCAAAQgAAEIFIUAElgUjGQCAQhAAAIQgAAEyosAElhe/UVtIQABCEAAAhCAQFEIIIFFwUgmEIAABCAAAQhAoLwIIIHl1V/UFgIQgAAEIAABCBSFABJYFIxkAgEIQAACEIAABMqLABJYXv1FbSEAAQhAAAIQgEBRCCCBRcFIJhCAAAQgAAEIQKC8CCCB5dVf1BYCEIAABCAAAQgUhQASWBSMZAIBCEAAAhCAAATKiwASWF79RW0hAAEIQAACEIBAUQgggUXBSCYQgAAEIAABCECgvAgggeXVX9QWAhCAAAQgAAEIFIUAElgUjGQCAQhAAAIQgAAEyosAElhe/UVtIQABCEAAAhCAQFEIIIFFwUgmEIAABCAAAQhAoLwIIIHl1V/UFgIQgAAEIAABCBSFABJYFIxkAgEIQAACEIAABMqLABJYXv1FbSEAAQhAAAIQgEBRCCCBRcFIJhCAAAQgAAEIQKC8CCCB5dVf1BYCEIAABCAAAQgUhQASWBSMZAIBCEAAAhCAAATKiwASWF79RW0hAAEIQAACEIBAUQgggUXBSCYQgAAEIAABCECgvAgggeXVX9QWAhCAAAQgAAEIFIUAElgUjGQCAQhAAAIQgAAEyosAElhe/UVtIQABCEAAAhCAQFEIIIFFwUgmEIAABCAAAQhAoLwIIIHl1V/UFgIQgAAEIAABCBSFABJYFIxkAgEIQAACEIAABMqLABLo6a+Zvs/0wYcfpL3Oa9JzTqk3s9fBrtP5a6UunfwhAAEIQAACEFgvBJBAT09Hm+sUDO7Rgd94RbBEEjj+sfYGj6rHU77ZTEpggw7sCSq47+2ElCKBabD4CAEIQAACEIDAsgkggR50tgTWqSXq2SkpPjejmdl4ys747Ixm5pL7rM8zc4o/dk+La879vDCnGXfbORxvb1Aw2KDwTGo+bmopqpa6oIK/dTTxsclvRp4iJWufKTO9rLTzTKZxU4dcZSVLZQsCEIAABCAAgfVBAAn09HNOCewwwuaRw7tndCAYVENHXHocVctbIQVDe7T31ZCCrx7W+Rsm0x4dDQa1760D2hMMKmhee4+rf0Ga/p8D9md3vyt6nrpkSKAm9fG+oIIHz2vGOW/s1F4F932sSaesusOHtXe3U9arR9UzZ5841/uBtT+0d69Cu4Pa9//2yzmUUiIfIAABCEAAAhBYPwSQQE9f2xLoSJQlaI74Pe7X8T1B7Ttt3x04c/aAgnuOq/+xNHl6n4J7jqrTsar+j/Yo+JtOxR0x2/Nep2ZMdPDGZ6oLBnW0yy7QLitzOjhZnbRIoAnmWTJ6QGfuSnLqdOCsUUJbOBNlzYXVYGTP1Heh09qu+4MT3rQEdp8+vp4siS0IQAACEIAABNYfASTQ0+e2mO3TxyMz9tSpZwrXkr3XP9aYE5GzhXBG5w8GFdwd0t7X99qv/woqWNeiqBuda3bnlm1Rq3M+L0cCXfEzZVtCuLtBnQumAal5p0QRh45bkcjQq079Xt+jkJHRXk/D2YQABCAAAQhAYN0RQAI9XW6LmWfa13NMVgRtj47/z8fal5gajit8JKhg/WeaNPfbuS/rxr10MUv9vCwJlBt5bFDDwaD2fNTv1DA1byOBn73h3E9oLUAJ6YMuT/08cuttItsQgAAEIAABCKwfAkigp68zI4FGnOZkL/+Y0Zm3TNQvqOBbZxL35dlTtHU6OTRjLdCYHjqjMwNmbjhdzFI/22U1KDw7l7rYI1GfzOlg69Dd83rbuu/PK6t23nveC2smblYYH9c+955FJ3K558h5RRfM+pBJdTaHFU0sYEkUyAYEIAABCEAAAuuIABLo6WxbzLz3BJrt5H17tvA5C0IS6ebUf6LOWnBhLf74rzod75peVAJ1o0UHnEUcdX/I9iTCHBKouDp/E3TuO3Qr4UjgG3XOwpCQ9n7Uk1z8ceO8Gl4POYtRQtp7pEVjrAxx4fEOAQhAAAIQWJcEkMBy63YrErhHxwe8FU+NMnqPsA0BCEAAAhCAAASyEUACs1FZw/vGTu1zHgvjrSQS6KXBNgQgAAEIQAACixNAAhdnxBkQgAAEIAABCECg4ggggRXXpTQIAhCAAAQgAAEILE4ACVycEWdAAAIQgAAEIACBiiOABFZcl9IgCEAAAhCAAAQgsDgBJHBxRpwBAQhAAAIQgAAEKo4AElhxXUqDIAABCEAAAhCAwOIEkMDFGXEGBCAAAQhAAAIQqDgCSKDTpbdv3xYvGDAGGAOMAcYAY4AxsFbGQKmtEwlEApFf/gBgDDAGGAOMAcbAGhwDSKAkP0zVtf5SAyd/CEAAAhCAAAQgkI+AX07ih199JV9Dl3LMj0r6BXwp7eUcCEAAAhCAAATWLwG/nMQPv0IC1+84puUQgAAEIAABCBRIAAn0APPDVP0C7mkWmxCAAAQgAAEIQCCDgF9O4odfEQnM6F52QAACEIAABCAAgewEkEAPFz9M1S/gnmaxCQEIQAACEIAABDII+OUkfvgVkcCM7mUHBCAAAQhAAAIQyE4ACfRw8cNU/QLuaRabEIAABCAAAQhAIIOAX07ih18RCczoXnZAAAIQgAAEIACB7ASQQA8XP0zVL+CeZrEJAQhAAAIQgAAEMgj45SR++BWRwIzuZQcEIAABCEAAAhDITgAJ9HDxw1T9Au5pFpsQgAAEIAABCEAgg4BfTuKHX1V2JHB+XD2fN+rQG/u1/40GNYWHFItn9GdxdsSG1PyuKeeQmqeKkyW5QAACEIAABCCwtggggZ7+8MNUCwc+r6F3d2pjIKDAk9WqeaZGNc9UO5+369CleU8LirA5G1Ht1oCqv79fjZ9HNF7k7ItQQ7KAAAQgAAEIQKAIBAp3kuUV6odfVWQkcPzYDlUFqvXSsZ7UyF88qtY3a9U0sbwOyZUqdmqXAhtqFSlVlDFXweyHAAQgAAEIQMBXAkigB7cfploQ8KlG7QgEtO3IkKeWi2zOxhSbjik2m3nefCwZ1puP2efNp8le9NgOBb7TqGhmcsnNO5mNfVZ8Xoms502+aSfkSjcfU6J8K10smU96+aYM0670vM15+Y6l58NnCEAAAhCAAAQsAgU5yQqY+eFXFRcJtIQssEunY0sgHx9X08s1qgoEtHHzJlUFqrTphQYNJWQwqsbvBBQ60apD396ogJleDgRU9fRLOm3d9xdV0/P2PvdYILBDjebY7JAaTd4bNlnT0Zs2bNT2gz1KqF64VoFnGhQJ16rayndp6az27W5S68Ht9vS2SbuhRi994lXQeQ0de0k1GwKq2lyj6iedOjsR0Oi5em1/MqCNW2tUs3Wj3Z4iR0eXQJ9TIAABCEAAAqUjEG1V4+fj+fOPj6v5WKuiacGdfImQQA8dP0y1EOCR1wIK/FOjFul2SfNq3l2lwHcOqccVxvi4Gp+vUtULp2XvsiUwsPUlNfY6J8WHdOjZgKpeiyQojL+/XYFArZJ77Lyrnm/UuDuwrPsGq7TrlJOPkcDAFus+wtZRN1q3eDpbclOnuocOb0uZjp5vCVnT4bXn3IZJ0XCrLbfDDdoWqJb3mDV9vrVePW5dEy1jAwIQgAAEIFCGBKLNCm01QZoq7TiWwwica74J4lT/Z/OSRbAQJ1kJOT/8quIigZYE5pqa9fZGtEk7AlWqDXt3SrpUry2BGjUMm/22BO445o2ySUNHalKmf20x80igNSXt5pHM35JFVzAtCdzmlOOcs4R0Vlnp7RtuUI0bgZQdnfRKarIGUuS1KgV2NycjkuZgvFW1gS2q7/WeyTYEIAABCECgPAkMHaxOzN5lFUGPANozedU6NLC0tiKBHk5+mGohwCNvVCmwYb8nKueprHfTkjBnCta7P3ZauwIBRw6zS2C6iGVIoJV3+jSx8/n5JvveQescjziaOiwhXXrZVtUteXTbElFtIKB0cbWb6EQ2nWnt5BS2/dfS/g4vCLYhAAEIQAAC5UpgXpHXcohgFgGsDSdu1lq0wYU4yaKZ5TnBD7+quEjg/BkzFbpF9ZfykDWHckmgFSFcoQR27FdVYIeaUgOIqRXKJoFLSLdSCTT3MFa9kZy4Tq0UnyAAAQhAAAKVQiCLCL7fat32lQyCVKsQATRkkEDP+PDDVAsCHu9RvbkP4DsNyfvxPPVVbFxRs/DDifiFWtLs35oOdqNqy4wEWnlXKXQmLW9vPbJJ4BLSLS6BMZ1+IZA55euU3fPWFgWebVjCPZPeyrINAQhAAAIQKEcC6SLonaUrXAANgYKcZAXI/PCriosEGt7zww3aYVbGPr1Lhz4fUtR6TMq4ek7Yq2JrfhZRTPOKvFGtwNaQmiccWZuOqN4s+kjcM7dMCUzk/ZKaBpy858cVObhLoU+8C0PSpoOXkG5xCZTmO/arOlCt0Ofj9uNk4jGr7PqOeWmqSTs2VGnbWxFFnarFhptU+/1DLAxZwS8rSSEAAQhAYK0SyCaCyxNA00Ik0NPPfpjqsoBHW3XoR9uSj1Exj3bZvEO1JzwPkLYeHr1Dmza4fxls1PbXmj0RxOVKoFlsYR5MnZr3th81KOIu2M0WCTRcF0m3FAk02YyfCmnbk8l2bdvdmHj0zfxAo0LPeh55Y7gstoze0+dsQgACEIAABMqLgFcEly+Aps3LcpJlwPLDryoyEpjO2jzkOfGA5fSDzuf52TxTtznSLHX3cvNebrqUes3naVd8flEuKXnxAQIQgAAEIFC2BOYVeXOn6gtYBJKtqUigh4ofpuoXcE+z2IQABCAAAQhAAAIZBPxyEj/8al1EAjN6kB0QgAAEIAABCEBgGQSQQA80P0zVL+CeZrEJAQhAAAIQgAAEMgj45SR++BWRwIzuZQcEIAABCEAAAhDITgAJ9HDxw1T9Au5pFpsQgAAEIAABCEAgg4BfTuKHXxEJzOhedkAAAhCAAAQgAIHsBJBADxc/TNUv4J5msQkBCEAAAhCAAAQyCPjlJH74FZHAjO5lBwQgAAEIQAACEMhOAAn0cPHDVP0C7mkWmxCAAAQgAAEIQCCDgF9O4odfEQnM6F52QAACEIAABCAAgewEkEAPFz9M1S/gnmaxCQEIQAACEIAABDII+OUkfvgVkcCM7mUHBCAAAQhAAAIQyE4ACfRw8cNU/QLuaRabEIAABCAAAQhAIIOAX07ih18RCczoXnZAAAIQgAAEIACB7ASQQA8XP0zVL+CeZrEJAQhAAAIQgAAEMgj45SR++FVZRQJd8LzfFgxgwBhgDDAGGAOMgdUbAxl2WOQdSKADlEG+eoMc9rBnDDAGGAOMAcZA5hgosvNlZIcEZiBhBwQgAAEIQAACEKh8Akhg5fcxLYQABCAAAQhAAAIZBJDADCTsgAAEIAABCEAAApVPAAms/D6mhRCAAAQgAAEIQCCDABKYgYQdEIAABCAAAQhAoPIJIIGV38e0EAIQgAAEIAABCGQQQAIzkLADAhCAAAQgAAEIVD4BJLDy+5gWQgACEIAABCAAgQwCSGAGEnZAAAIQgAAEIACByieABFZ+H9NCCEAAAhCAAAQgkEEACcxAwg4IQAACEIAABCBQ+QSQwMrvY1oIAQhAAAIQgAAEMggggRlI2AEBCEAAAhCAAAQqnwASWPl9TAshAAEIQAACEIBABgEkMAMJOyAAAQhAAAIQgEDlE0ACK7+PaSEEIAABCEAAAhDIIIAEZiBhBwQgAAEIQAACEKh8Akhg5fcxLYQABCAAAQhAAAIZBJDADCTsgAAEIAABCEAAApVPAAms/D6mhRCAAAQgAAEIQCCDABKYgYQdEIAABCAAAQhAoPIJIIGV38e0EAIQgAAEIAABCGQQQAIzkLADAhCAAAQgAAEIVD4BJLDy+5gWQgACEIAABCAAgQwCSGAGEnZAAAIQgAAEIACByieABFZ+H9NCCEAAAhCAAAQgkEEACcxAwg4IQAACEIAABCBQ+QSQwMrvY1oIAQhAAAIQgAAEMggggRlI2AEBCEAAAhCAAAQqnwASWPl9TAshAAEIQAACEIBABgEkMAMJOyAAAQhAAAIQgEDlE0ACPX080/eZPvjwvCY9+0q/GVf/R3sVeuuMoqUvjBIgAAEIQAACEICARQAJ9AyEaHOdgsGj6vHsK/5mXOEjQdU1u8oXV/+HexSsb0ECiw+bHCEAAQhAAAIQyEEACfSAySuBj+Oam5nRzMyc4p401mauYwtzmjFp5rwpxvTx60HtOzViH7PynNHMrPccKT5ryppRStL4XOI863hamvRq8RkCEIAABCAAAQjkIoAEesjklMAb53X41aCCoT3aEwoquPeoOu86CW+06IDZ5xwL/bxFk4pr5FSdQsGggtZrjxo6ZiT164Pd7r609zonEvg4qvOH9ygYDGnPqyEFd+/VUSutpN6jCgb36cBb5ridfu9H/ZlS6mkTmxCAAAQgAIG1RGBiYkLhcFhnz57NeJn95njBP1MDutg5oOsFJ8yXIKqRS10auZnvnGzHrmug86Iuprx6dXXE1NHs79bAyIgmogtW4rtXe7Puz5ZzsfchgR6i2SVwRmfeCip4JKyZx5IeR/VZXVDB33QqrqhazPbBM5q2js0oemvOynHu+ogmjfcZ9ftoj4JvfOZM9/boaNA7HSz1/DaooCOBM2cPKLi7QWEnbfQPddbnTjNWLAnck5BC61jwqDpN2fxAAAIQgAAE1jgBI3jd3d2anZ3NWlOz3xwvWASvXNTZsxd1NWuuheycUNc5N5+oBjoiGihYAqd1bWREIyPdunD2nCL9ZntUNwZNHS+oe2REQ5cj+uLsF+qekqKXv9DZ8xH1Wfsv6sK5s7rQd8OXAA8S6BkbWSVwIayGNGmL/mGfgrs/UH+WY8ns4jIi2HmhRR/Um8ide69hPgm07xd0hdDK68Zn2hcM6oM+VwLr1OLeTmhJoedzsnC2IAABCEAAAmuOgIn05RJAt7LmuDmvoJ8sEjgzNaRuJ/I2csu+5Sp+ayS5L7qg+K1R9V6KKBLp1sitGV3ra9e5s1+oPRHF69XVO5LitzR6ucuK2HX1X5OJ05gIXu/giPouXdTFS3265gRvkvW+qotnv1CvK5Epdbyh3razunjVkcC23sS6gPjNXn1xtl0DptwS/yCBHsBZJfBxZ0bkbuzUXgX3HNdIlmNWdo+jankrpFBdgz4+26kz7+1dogRKne8lo4JWXuMfa29wj44PIYGermITAhCAAATKkICZAl7Kz1LPS+SVIliSbg+ovfWCeifv6tbwRZ0716WJeRPlO6eLw7d098ZVjd6Ma/pKn4Ymb+nWUETnLlzW9clufXE2oqE7d3X3zoS624zExTXRdU7nLo7o1p1r6r1wVu0D03YEr61bE1/e0kC7id7dSlTH3sgmgUYwI2r/4qzOdVyVubPMigR6JFC6pu7zZ3XxSlp2JfiIBHqg2hL4tk52darTefXfuKPzB42YfabJBSl+t1NHXw1qz0f9kmacYyc1Yv4CmBnRmbP9mou2qC64RydHzPTxjDrfy4wE7vt0THPOwo6U6eBzbysYrNNn1+JSfEadv91jCWe/mfJNj/ylf/a0hU0IQAACEIDAWiOwVLlb6nmJ9qVLoPmcECtHxoZNhM2d6rVTxu9e14iJ8HVc0DlzvhWFc8+JqteSQPOelDJL2i5eteXNhPIckfvisjtN59YqmwS6gnlN3W1n1T54N1MC4yOKnD2nrnE3n9K9I4EetrYEpi7YsB7lMtevkz8PJRdj/Lpln4NbAAAgAElEQVRFY/atf5I5Vucc2x1S3Yl+zcTtSKC1eCNUp5OnjmpPYjp4Tj1G7MzCjtBR9Syk3hMozan/RJ1C7gKSvYfVMuoUli596Z89bWETAhCAAAQg8P+3937PURxpvvf8KX2nC0c4whdE+GJ8ZW5miLkYYm+OY+PEEr54HRsTS4zCi72CEWc8YA9rE94D45mxmA2jnfGAvccMhrDhtX3A8yLJMiCbHwIMQpbUQgiEfrWsHy014nkjqyq7sqqru6tb1aWq7k9HSF2dlZX55Od5qurbmVnZSSMQVtyFzVdsn18EZq9K31fXRfWnyMKQXFbDq+O3rfcha9h2VVZX78v1/j65Orooq0r8lRWB83L7khJs6sCC3LveJ31Xx+sUgY7ALMwXew89PYGFeRm/flF6+h3biw1szAYisDFcKRUCEIAABCAAAR+BsOIubL5i8ZYIdJ827r+ZldFr/dLX12f92Q9aFOTBrYvS09snfV/1yeXbo5a467t4WS4PXJaLF2/I1NKIfNvXIz19l+X2jO4JFCk8vC2X++3j+vq/lZEFZxi35p5Aw8aBG9Y8QksEGk9K9zvpxbY1cAMR2EC4FA0BCEAAAhCAgEsgrLgLm88tma16CCAC66HGMRCAAAQgAAEI1EygYU8H12wJBygCiEDiAAIQgAAEIACBWAg0bJ3AWKxvvkoQgc3nU1oEAQhAAAIQSCwBJQRVj6Aa8vX/qfSaF4pObEuTbxgiMPk+wkIIQAACEIAABCAQOQFEYORIKRACEIAABCAAAQgknwAiMPk+wkIIQAACEIAABCAQOQFEYORIKRACEIAABCAAAQgknwAi0PHRzMyM8AcDYoAYIAaIAWKAGEhKDDRaRiICEYGIX74AEAPEADFADBADCYwBRGBMixlq1d9o4JQPAQhAAAIQgAAEKhGIS5PQE+h4IS7glZzOPghAAAIQgAAEIBCXJkEEOrEWF3BCGwIQgAAEIAABCFQiEJcmQQQ6XogLeCWnsw8CEIAABCAAgWQQGB4elvPnz8uZM2ca8qfKVnUEveLSJIhAh35cwIOcTRoEIAABCEAAAskhoMRZo8Sfv9wgIRiXJkEEOjEXF/DkhDiWQAACEIAABCAQRKCRPYB+Eajq8r/i0iSIQId8XMD9juYzBCAAAQhAAALJIuAXao3+7G99XJoEEeiQjwu439F8hgAEIAABCEAgWQQaLfr85ftbH5cmQQQ65OMC7nc0nyEAAQhAAAIQSBYBv0hr9Gd/6+PSJIhAh3xcwP2O5jMEIAABCEAAAskiUFb0DYxJbnVd1teWZepOb4WHR76UGxNzsrySl9zEDfmyyhPG/tbHpUkQgQ752oDnZOhCr/T6/gbH834/Jufz0qAcP/iWdJ/PSoKtTA4vLIEABCAAgZYlUE4EjuRMJGsyHSgEv5Rb0+addl3m7lReZsYsVW3Xpkn8R4f/jAh0WNUGfED2ZzLS9uw22fYz5++nW6Qtk5Gn//mkZAvhHRBZztw56Xz1jEwFFpiXc3vaZOu/ntkc2wJtIhECEIAABCCQTALlROCd2XWfwX4h6BeAKvu6zN1FBPrAhf8Yh1KtRwTu+NAnuW53yfZMRkrSwze1/pzfvCVt/3Q8UATmr3XJS3sQgPXD5UgIQAACEGglAuVE4Jm/35LpVT+JNZn7/rKcORMkAEXWcmNymeFgP7Twn1MjAmVIun+WkczrAyWNy+dykpvNSc7sITZzFfL2/rIZRCqVkftkp2TKiEBZcupeMitkGwIQgAAEIACBIAJlRaASc313AoXgDz+U3uDDCEBVl/9VW8eU/+jwn+PQVz8Kb05wzjiMrA24PRxc0uO3dE5eybTJzk+MSQO5Aen6x6clk2mTLc+q96dl++vnZMoYMs5+8opse+pp2aqGlp9tk6efd4aY9fBuxTKm5MyrW+XpTEYyxb8dcnxSRNRxL9rD1Pa+p+WFPw0yJzA4zEiFAAQgAAEIWAQqisCyQtALL6wARAR6uZV8SqoI3Pabk+7DIV8cl/3/sEVeONTrCrzCkHT/PCPP7TnjpuV6Zf/zGdn6zqDdztmT8lJmu3Td1s3OS+9vnpPMnjOSU0IxTBkiMvXhjpKewPw3h2WnYU++b788l9ku3aO6Lt4hAAEIQAACEPATqCoCqwjBWgQgItBP3/c5qSLQ82DIz7bKlme3y853DRGo5ullnF45o025j1+STKZTzqmeYyvPfjEHkD2CLkwZZUSgUaWzafdg7r9UuocUCEAAAhCAAARsAqFEoJoDOLMWgGxN5gKfGi7/cIi/kNpGJ/1Hh/8ch75qoeHgQTn884y0/csZUQPClpjLeAWe5Zobh+U5LQ7zvdL51HPSedZ5yKSQleMvtsn2P2etrKHK0HWVmROYHx2U3gsnpfvgTuvBFURg+BOEnBCAAAQg0HoEqovA4IdAXFL6YZHyws+swz3O3kIEGkTiUKq1AS8zJ1CLMUf4lRVwvt49NUy75Zmn7Xl9z2yVl4wh3LBlWPl8IjB/u1t2PrtFtv9yv3R/rNY17JKXMhlBBBrBxSYEIAABCEDAR8AUaKXbZQTgE18hEl4I+o+sTZP4jw7/OQ591To9gSIyeOg5yfz4sFgz/qwev23SfdfrEGs4+Kn9MmA9HDIkXc9vNeYEevNKqDKC5gRmrfmIO47ZPYp2qQwH++jyEQIQgAAEIFBCoFT46R69YAFozQEss3xMblQtH6OPD373G4AINIjEoVRrA26LqReODtrLuqilXyaHpPfPr8jWTJvs+FALryk5+WKbtL3YLYOzdoPyd0/Kzh9nZPvRIaeFSgRmJPPMVmvh6Zf2vCVvHeyS45f0GoRhynBE4I/3S29OJHd3SKYKg3LYrKeQk8E/v2T1NtITaAQXmxCAAAQgAAEfgXKi7WL2BylZLtpcBzBQCC7L/YvB4k/X46ueXwwxgSRVBLpLsqjlWdpkyz/slK4LWrw5LVgakuN7trtLuDy1TXb+2VimZWlQul7cIW9Zw7W90vvFcen6zU7Z9lSmOC9QqpWhqpo8I68oMamWiXlmh5wcFZk6q5aeyVhLzmx59gU53DckZ/61jeFgM7jYhgAEIAABCPgIaHHmf/c/CBL4FLASgp4lA/MydRUR6EMc/mPyRGB4282c+YDFmgcOtgUuLj3wekbaDprPDNslBZXhqcO/2LRahNqfZh7ANgQgAAEIQAACHgJ+8Vf8fO2+LDtdgYECUA/7/v2WTKmMT9YlP31LvtTpZd49lfPbwV4czSICva2yP6lf+mh7/hU5fm3KGVqekqEv3pLtz+yQ4+NBR5AGAQhAAAIQgEAjCRRFX6Bo65WLX39ZdZ5f5TK8PYP+ttQ2Rc1/dPjPceirJnwwJDzgMDmnLnTJzn/cJlufsYduX/hll/SqX/zgBQEIQAACEIBA7ARqEXBR5PU3EBFoEIlDqcYF3GgWmxCAAAQgAAEIJJDA+fPnI+3pqyQUVV3+V1yaJA59RU+g37t8hgAEIAABCEAgsQSGh4djE4GqLv8LEWgQiUOpxgXcaBabEIAABCAAAQgklIASZ43sEVRlBwlAhSMuTRKHvqInMKEBjlkQgAAEIAABCCSPACLQ8EkcSjUu4Eaz2IQABCAAAQhAAAIlBOLSJHHoK3oCS9xLAgQgAAEIQAACEAgmgAg0uMShVOMCbjSLTQhAAAIQgAAEIFBCIC5NEoe+oiewxL0kQAACEIAABCAAgWACiECDSxxKNS7gRrPYhAAEIAABCEAAAiUE4tIkcegregJL3EsCBCAAAQhAAAIQCCaACDS4xKFUNXDeZ4rrE8ECFsQAMUAMEAPEwObFgCGFGrIZh75KVU8gwb55wQ572BMDxAAxQAwQA24MNET5GYUiAg0YbEIAAhCAAAQgAIFWIYAIbBVP004IQAACEIAABCBgEEAEGjDYhAAEIAABCEAAAq1CABHYKp6mnRCAAAQgAAEIQMAggAg0YLAJAQhAAAIQgAAEWoUAIrBVPE07IQABCEAAAhCAgEEAEWjAYBMCEIAABCAAAQi0CgFEoONp1iVy1yWCBSySFAPVLsZJshVbGn/uEA/RM67GVO0ntqPnHsQ0jC+izIMIdGgGOYO0eIIeznCuFAPVLniVjmVf88UW8RC9T6sxVfs5l6LnHsQ0jC+izIMIdGhqZ0QJl7IgAIH6CYQ9J8Pmq98SjkwCgbB+DpsvCW3abBtqYVVL3s1uVxrr3yy+iEAnWjbLAWkMVmyGQBwEwp6TYfPFYTN1NI5AWD+Hzdc4S9NTci2sasmbHgLJsXSz+CICnRjYLAckJwSxBALJIhD2nAybL1mtw5paCYT1c9h8tdbfjPlrYVVL3mZk1eg2bRZfRKDj2c1yQKMDi/IhkFYCYc/JsPnSygG7bQJh/Rw2H1zdeX5hWMA1DKX682wWX0Sg47PNckD9IcOREGhuAmHPybD5mptW87curJ/D5mt+YtVbWAurWvJWr5kcfgKbxRcR6HhisxzgDwQ+QwACNoGw52TYfHBNN4Gwfg6bL900orG+Fla15I3GutYqZbP4IgKdONssB7RWmNNaCIQnEPacDJsvfM3kTCKBsH4Omy+JbYzbplpY1ZI37nY0Q32bxRcR6ETPZjmgGYKXNkCgEQTCnpNh8zXCRsqMj0BYP4fNF5/lya2pFla15E1ui5Nr2WbxRQQ6MbFZDkhuSGIZBDaXQNhzMmy+zW0NtW+UQFg/h823UXua4fhaWNWStxnYxN2GzeKLCHQ8vVkOiDvQqA8CaSEQ9pwMmy8t7cbOYAJh/Rw2X3AtrZVaC6ta8rYWxWhau1l8EYGO/+p2QD4rg18cl66Db8lbB7vl5KUhyRXCBsWUnHl1m2x7d8A5YEC6frZNXvlkKmwB3nz5rAxc6JXecn+3c578ubu9cvxdx+5rddbpKVFEckPS+2GXvHXwLen+eFCmQrPwF1T6OXc7oG3fZCVvZp0dCmj/gGQ9mcwD2E4qgbDnZNh8djtzMhRwfgyOJzhAxs9J18HDcvya9/xNqt8aZVdYP4fNl9p4WBqU4+r6et537asDfC2swuddlodj38v331f4uz8rIgsyduuqXL/7UCK8TdRBIRmHhOcbrb2IQIdn7Q7Iy9CfX5KnMxnJPLNVtv1sm2z72Vbn8wvSdS3MTWVKjv9TRjKvuyJwfyYjOz6sU5DlzkmnZYeyxfu35amMPPfOoNPavAy8vlUyT22RHXvekrf27BC1f+u/npE6a7bKzV96S7Y91SZbXuyUtw7ul50/f1oyz7wkJ8ejCNq8nNuTkaef97Zr295zYt4a8+c7DX/ovJ1yzswUhTmU0XACYc/JsPlsgwdEnWNtz+rY2CbbfrpF2jIZefqfT0p2M+5G6rx9tcy5VxiS7p+3yfZ3Br1fdhpOP3kVhPVz2HypjAdR18E261odRazWwip83hm5802/9H8d8PdVn/T19cnFW49EFu7IQF+f9PVfl0huEckL2ZosCs+3pmKrZkYEOohqdUD2wx3Sltkqr3w46O35K0xJ76H9IYVPxCKwnLvvdsv2zA45PmlnyF/olDb12TzzrDxtsv9SuUKqpOcHZP+PM7LjWNbImJfe3zwnmX8+6RFqRoYaNgfl8I/b5K1vKh8y+M5z0nZQi+rKedmbbAJhz8mw+ezW2iKw5IvW7S7ZvpEvYBtB+c1b0vZPxwO/gE2d7ZSX3kUAKrxh/Rw2XxrjIX+tS17acyayLyu1sKolb+DpUBiX6/190nfpljy0vmwVZH5yXCbm1gKzt1rihvnWCQwR6ICryQGTx2VHJiPbjw6Fxp7P5SQ3m5Ocp4MwpAgs5O1jZz0Hh6w7J2f+pU3a9vYWexKyJ16SF94ZKH62CypzcwxZi6gbmSE0i4dd2i+ZTKecq8f0YiFqmPmM7MzskJMVuypVWzOy40TFTGapbCeYQNhzMmw+u6nl4nxIun9m9sq7YILPXXe/6PPTe3IbGUQqlZH7ZKdkyojASsd5KmiBD2H9HDafjSxd8SBLzn1kKRqH18Kqlryl1i3I6NV+6eu7JN8VL88FWV6Yl/kftAhck8WFZWdoeE0W5+dlfn5R9N7SMpsrZWN862eBCHTY1eKAqQ93SCazU86EGWIcPSmdalhUDRurv6e2yStn9VlQXQRO9R2WF55xhkGff1rafvqKnDF78Kr5/sZh2ZrZLt2jVTLmz0lnJiOd5+tUa5YIfMHbu6iq7FMiMCSrSibeOCzPKTE5m5XBCwMyNBlkp+otzEjnFznJXuuVgbtTkt+M4b1K7WBfaAJhz8mw+eyKy9z0l87JK5k22fmJcVLnBqTrH9W52yZbnlXvT8v218955rlmP3lFtj31tGxV0y+ebXOnK+jh3YplqDnBzhQSfX3QX6QqXjdCI2yqjGH9HDZfquJBxdGL9rQF+17ytLzwp433ENfCqpa8/sBbGLkq/X19MjC8YOx6JLcu9knfVX1zGpWrff1yY/iufPu1PWysho77vr4qo+ZhRgnNtLkRvhvhgAh06NXigIHXM5L5H8fFHPgs54Spjzul0xgyzh7bIZmnOqXX0jBVRKA1RLtV9ve5NyZrGPr5wzIYStyU9gKWs9Oy68f7ZSBIW5U7yEzP90qnmlf4eq87PL40JN0vtknmZ90Svs/ULNTdtnpL9FwuZw5XiSC2eguV0N5izYlU8xwt0f1JGE+5dbGVDAJhz8mw+exW2SJw229Oug8QfXFc9v/DFnnhUK8r8Ky5eBl5bs8ZNy3XK/ufz8hWPbd29qS8lNkuXbc1L2f6w54z9jkQpgwRsb5U+noCK183dH2t9R7Wz2HzpSke8t8clp1GfOb79stzYb7cVwmRWljVktdT7cL38m1/n/RfHRWvlgsSgbbo+94ZIi7Mfy9XnWOXPYU234e6+W4QBSLQAViLAywR6Ltoh/aDNZSs5+dVFoEDr7dJZs8577BtoVf2Z56TwzdC1BiyFzB/ab9szWyV/ZfqVYC2LWq+iuq11JPut/50qzxXcZ6V/0nNoYpzB/OmeblBW2D+vNsrxs1MhZwMHlVzN0P0hIbASZZ4CYQ9J8Pms623RaCOUf1A15Znt8vOdw0RWGZ6Q+7jl9zpDVae/WLOQPUIujBllBGBJaQ9142SvS2RENbPYfOlOh7EjuO653A7EVMLq1ryugE5K3cG1MMfQb15wSLw6oh7tNp6ePOi9PVdFd1f6N3bPJ/q47vx9iMCHYa1OGDgYJtknnrLc/Gv6IpCXqbuDkivWkpm7w55Tg/5SCUR6OwrDhM5w8nW5+oPSIjk5OQ/ZzxzAYNszF87LNuf8vY2BuULnabnR81OSe/rW6XtxeMVJjHbS+K4TzJ3hWeqDLq035qHWHGeYGFA9j/FPMHQ/ktQxrDnZNh8dtPKDQcPyuGfZ6TtX85YX0TsKR9egWcdb01LcL7EWb3fz0mnnt5RyMrxF9tk+5/tnudQZVQSgWWvGwlyUoymhPVz2HypiwcRyY8OSu+Fk9J9cKf1IFOyRWBBHt66JH19/XJ9PGjoKpwIlJGr9lzC6RiDbROqqi1uozMQEeiwrMUB9tO1z8nha9UdMXV+v2x/Vi3F0iXHv+iV3o/3y7aQIvDki5n6n3S9pubQVe4B0wKw87yeo1i9PWFzWL2LT/meQA57cNh8d7sNluUOsif8lzwNWi476YkhEPacDJvPblgZEajFWMYWfmUFnK93Tw3LbXnm6eJSUS8ZQ3Zhy7Dy+UYWKl83EuOiWA0J6+ew+dIUD/nb3bLz2S2y/Zf7pftjtV5ql7yUydS/moPjuVpY1ZJXFV94eEsuqeVgbkyUWQcwnAgsfP+t9PUNyJ35WMMt9spq5RuVgYhAh2RNDigMyuHnM5L5p+7gXq5cVqbU01tOT8H+PmMc0zOsU6knUEQtd5LxD3eG8nz1XkAtAF9pxHy58eOy46k22fFhY+fiWTfPp/bLQNCXTM3J4r2BpW90ObzHTiDsORk2n92A8iJw8NBzkvnxYbFW07R6/LZJ911vs63h4GLMDUnX81uNOYHevBKqjIA5gVWvG756WuRjWD+HzWdjS0E8SFa6f+5ffsu2O7E9gYUJuaEe+iguBxMUpGFEYEHGrvdL39c3ZCKoiCZKqy1uo2s4ItBhWasD8ne7ZcdTGWn76U7p+mJIptTyL+rJ1Y/tp3m3/fuA5KwHFdrcJ24LU3LuN9uMpVQqi0CZPGmJqe3vDMiUoyNzd0/K/v+nq/KDIVV6AdW3SmX79tdPyjnfrycMjBqCtZ44cybDt714MnDds3qKlEJWTv7yBen884BkZ/OSX8pJ9ov91sLU5nIw2RM75YU93TIwmpP8Ul5yo+dk/0/bJFJb6moAB9VDIOw5GTafbYN983zh6KCz7FJOcpND0vvnV2RrxvziMiUnX1Sx0y2D6scN1He6uydl54/NpaGUCHQXi39JLbx+sEuOX9I962HKcETgj/dLb04kd3dIpmbUckiVrhu2Pa32P6yfw+az+aUgHlSngxl3aq6z80MFyRSByzJ6TS0Hc1Guj83KvLXUi1ruxf1bWFbf3INFoBKOk9b+NZkdv2H1Jg7ccU7CJg762uI2OhCIQIdlXQ6Y6pWuX263h4KcuXttz+6Q/R/rBaTzMvinF+RptcTET7fKlp++IsdvD0jX8+EeDFGm5W8f9ywxY5X/RaUeNltYbn3dvw6gDhpnPbTAuYbB66TpI6u/O79E8swrcibic3aqr8v+BRKTs5+D3x/qF1FePxfcW1u9MeTYZAJhz8mw+ezm2Df94pJNzhzbLf+wU7ouaPHmNHxpSI7vMc7vp7bJzj8by3IsDUrXizvkLWt4rtee8/ubnbJNfcFy5gVKtTJUVZNn5BUlJpUtz+yQk6PVrhub7JhNqj6sn8Pms5uRhngQmTqrliKylwrb8uwLcrhvSM7868ZHOGphFT6vWurFWOIlYNv6xZAyInDgxg255PyyiJpPOHBrwvdU8SYFYIOrDc83WkMQgQ7PjTpALepadk069bDERhf3LOTLlx9tTCS7tJAs83UtrJ3spreadWHPybD5NsIvH3D+Wg+IFX/y0S1drR4Q9Ks1QWW4R6kFpX298CFj3SyjmbfD+jlsvo2wCvJlLPHgj5GNNKKGX2FR1TSeqy0e9dPBa8t64egNNjIlhzeebzAIRKDDZbMcEOwWUiEAgbDnZNh8URNVa1e2Pf+KHL825QwtT8nQF2/J9mca/EBU1A1JSXlh/Rw2X9TNTmM81MKqlrz1sfWKwPrKSO9RjecbzAYR6HDZLAcEu4VUCEAg7DkZNl8jiE5d6JKd/7hNtjq/6vPCL7uk1/mN7kbU18plhvVz2HyNYJm2eKiFVS1562M7Jte/7pfrY/UdnfajGs83mBAi0OGyWQ4IdgupEIBA2HMybD6IpptAWD+HzZduGtFYXwurWvJGY11rlbJZfBGBTpxtlgNaK8xpLQTCEwh7TobNF75mciaRQFg/h82XxDbGbVMtrGrJG3c7mqG+zeKLCHSiZ7Mc0AzBSxsg0AgCYc/JsPkaYSNlxkcgrJ/D5ovP8uTWVAurWvImt8XJtWyz+CICnZjYLAckNySxDAKbSyDsORk23+a2hto3SiCsn8Pm26g9zXB8LaxqydsMbOJuw2bxRQQ6nt4sB8QdaNQHgbQQCHtOhs2XlnZjZzCBsH4Omy+4ltZKrYVVLXlbi2I0rd0svohAx3+b5YBowodSINB8BMKek2HzNR+h1mpRWD+Hzdda9IJbWwurWvIG10ZqJQKbxRcR6HhlsxxQKSjYB4FWJhD2nAybr5VZNkPbw/o5bL5mYLLRNtTCqpa8G7WrFY/fLL6IQCfaNssBrRjstBkCYQiEPSfD5gtTJ3mSSyCsn8PmS25L47OsFla15I2vBc1T02bxRQQ6MbRZDmieEKYlEIiWQNhzMmy+aK2jtLgJhPVz2Hxx25/E+mphVUveJLY16TZtFl9EoBMZm+WApAcm9kFgswiEPSfD5tusdlBvNATC+jlsvmisSncptbCqJW+6qWyO9ZvFFxHo+Fs7gPeZ4g+FwwIWSYiBapfkJNiIDfGdK8RD9KyrMVX7ifHouQcxDeOLKPMgAh2aQc4gLZ6ghzOcK8VAtQtepWPZ13yxRTxE79NqTNV+zqXouQcxDeOLKPMgAqOkSVkQgAAEIAABCEAgJQQQgSlxFGZCAAIQgAAEIACBKAkgAqOkSVkQgAAEIAABCEAgJQQQgSlxFGZCAAIQgAAEIACBKAkgAqOkSVkQgAAEIAABCEAgJQQQgSlxFGZCAAIQgAAEIACBKAkgAqOkSVkQgAAEIAABCEAgJQQQgSlxFGZCAAIQgAAEIACBKAkgAqOkSVkQgAAEIAABCEAgJQQQgSlxFGZCAAIQgAAEIACBKAkgAqOkSVkQgAAEIAABCEAgJQQQgSlxFGZCAAIQgAAEIACBKAkgAqOkSVkQgAAEIAABCEAgJQQQgSlxFGZCAAIQgAAEIACBKAkgAqOkSVkQgAAEIAABCEAgJQQQgSlxFGZCAAIQgAAEIACBKAkgAqOkSVkQgAAEIAABCEAgJQQQgSlxFGZCAAIQgAAEIACBKAkgAqOkSVkQgAAEIAABCEAgJQQQgSlxFGZCAAIQgAAEIACBKAkgAqOkSVkQgAAEIAABCEAgJQQQgSlxFGZCAAIQgAAEIACBKAkgAqOkSVkQgAAEIAABCEAgJQQQgSlxFGZCAAIQgAAEIACBKAkgAqOkSVkQgAAEIAABCEAgJQQQgSlxFGZCAAIQgAAEIACBKAkgAqOkSVkQgAAEIAABCEAgJQQQgSlxFGZCAAIQgAAEIACBKAkgAqOkSVkQgAAEIAABCEAgJQQQgSlxFGZCAAIQgAAEIACBKAkgAqOkSVkQgAAEIAABCEAgJQQQgSlxFGZCAAIQgAAEIACBKAkgAqOkSVkQgAAEIAABCEAgJQQQgSlxFGZCAAIQgAAEIACBKAkgAqOkSaUDjQgAACAASURBVFkQgAAEIAABCEAgJQQQgSlxFGZCAAIQgAAEIACBKAkgAqOkSVkQgAAEIAABCEAgJQQQgSlxFGZCAAIQgAAEIACBKAkgAqOkSVkQgAAEIAABCEAgJQQQgSlxFGZCAAIQgAAEIACBKAkgAqOkSVkQgAAEIAABCEAgJQQQgSlxFGZCAAIQgAAEIACBKAkgAqOkSVkQgAAEIAABCEAgJQQQgSlxFGZCAAIQgAAEIACBKAkgAqOkSVkQgAAEIAABCEAgJQQQgSlxFGZCAAIQgAAEIACBKAkgAqOkSVkQgAAEIAABCEAgJQQQgSlxFGZCAAIQgAAEIACBKAkgAqOkSVkQgAAEIAABCEAgJQQQgSlxFGZCAAIQgAAEIACBKAkgAqOkSVkQgAAEIAABCEAgJQQQgSlxFGZCAAIQgAAEWpnA+Pi4XLp0SXp6ekr+VLraX+trfuSGfHvlW+/fnTsyfO2qDD+stTSd/77c9pd55YaMDN926rkut4eHZXxq1TrAtcGbrktr5DsisJF0KRsCEIAABCAAgQ0TUALv+vXrsrS0FFiWSlf7axWCyw9HZXh4WG590yc9F69b28MTI3JrYEBu1y0CZ+Xe8LAMD1+Xiz19MvCd2h6VB3e+lZ6ei3J9eFiGbg5If0+/XJ8UmbrZLz1fDcgtK/1budjXIxdvPZBCYEujTUQERsuT0iAAAQhAAAIQiJiA6ukrJwB1VWq/ylfPyxJi3444h6qevBsyMidy/863Vq/d9Svfyo2xKbn33VX59spVGXpoS7SFe7fkqur1u3ZL7i34ax6Rb3v65YYWk98rEfit2LU8kBtf94iq0qr76xsy5RxeeHhD+nsuy+05f3nRf0YEGkwXbn0mH/z3B8bfKTl/Y0oK60amBm0uDF+Q9995Q9545325MFwSSU6tE/KVxz7D1v/3O1m495n87sDb8ulQg4ykWAhAAAIQgMAmEFBDwGFeYfP5y/KKQFe8jXzbI33fDMn0o9tyWfXqDU3L9O3L0nPxlkzP3JbLfQMy9GhepocGpG9gWJY9BbvlWMmWCOyXy1cG5HK/KndE5qVUBIrck+tf9ci333sKa8gHRKCBderc29LR8Zr87r9scfX+u29K554O6Tj8qYytGBnLbI598oZ0/HWwzN4Kyfc/lTc7XpM/fnJJLp35k7zW8bac118JPIcZIvDdNz22fqBE4NApeaPzDTlxK45OZI9hfIAABCAAAQg0jEBYcRc2n9/QSiKw/6a6IRuCTvXUqZ47Jep6++XixYty8WK/9F++LdOego1jVLolAgdkaG5e5ufuyfWve+TynfmSnkApDMtAT59czXoKa8gHRKCB1RaBPgH24Lz8bk+HvPbXQXd8fr0gKwsLsrCw4qZJQS4d7ZCO/7okCwsLsqJ1mM67pBOMCvXmjfelo+N9seXjikxkJ9zjdR7/u3WMz1anLrtuZeOK1YtZWFmQBV1/YcW2z56P6pYaxk43N1sQgAAEIACB2AiEFXdh8/kNr0sEZq9K31fX5Z51e1+V5WX/fT5IBDrDwYV5uX1Zzf2b9orAwryMX78oPf26XL+l0X5GBBo8A0WgiAz+tUM6Orrl0qpIYehTebtTfbb/Xjt6RRZkVs4fdtPUvvdviIgSkJ0d0rnvDXmts0Ne+9NXMhU0tOz0BL5/NUR3o7Y3SAROnZe3dd0yKO93dMibb78tnY6tf/zbKcsey/Y9b8gpPWwc1k5dN+8QgAAEIACBGAmEFXdh8/lNr0sEyoKMXuuXnt4+6evrk/7BcfHexYNEoPtkc//ADWseoVW38cSzTvfb2IjPiECDajkR6ElfmZBhPfvz9gl5reNN+eyBKmRKzr/dYQwHT8inb3bIa3+5YgfF+ndy4rUO6f7G/01BZPbqB/KmGnbueE3ev2GH0MLFbnnj4+8M63ybIUXgGx8PW72VCz2/k46ON+TUqIisj8mpAx3S8d+q/PB2+izgIwQgAAEIQCAWAmHFXdh8sRidgkoQgYaTPGLPSLfm+nX8Ub5yntcoKCF49ZKcP/47ea3Y8+YTgQtfyR9VD9z/ekPeOGD/qfmFb5/zTfYbUkJSib9Z+e5vb0rHnjflxO1Za2j5jU/GDCt8myFFYLE+T37D1rB2+qrnIwQgAAEIQCAuAo1+OjiudiStHkSg4ZFAEbg+LCf2dUjHOxdEacCpL38nnZ1vS/eZC3Ll/3tf3ignAlcvSXdHh/zu8wlrDp6aJ+iZK+jUa9fpzgcc/O83pMPqFfTN9zPstDY9ok4XVjocXFUEhrTTXz2fIQABCEAAAnERaNQ6gXHZn9R6EIGGZ2xB9qZ8OqwE26yM3bogHxzskI49v5PzxpDvax8PW0ctfPN+aU/gf12SlSX1wEhBrvxXh3S8fUqG5wsiq7My3HNBvvNOGJDCN93WMHD3xSkprK7I7NBn9ry9Pb+Tz+6XDh0XzY1KBIa0s1gvGxCAAAQgAIFNIKCEoOoRVEO+/j+VXutC0ZvQhMRViQg0XGKLQOMBjz2d8ua7p+TKtCvGrJ5A60GLTnn740/l/dech0BUL+E5Ne9Oica35bP7IrLynZz6353Fh0g6//cJuTJrVGhtrsh3H7sPb3T8r7flxNUJufLX1yzxWVYIRiYCw9rpt5vPEIAABCAAAQikmQAiMM3ew3YIQAACEIAABCBQJwFEYJ3gOAwCEIAABCAAAQikmQAiMM3ew3YIQAACEIAABCBQJwFEYJ3gOAwCEIAABCAAAQikmQAiMM3ew3YIQAACEIAABCBQJwFEYJ3gOAwCEIAABCAAAQikmQAiMM3ew3YIQAACEIAABCBQJwFEYJ3gOAwCEIAABCAAAQikmQAiMM3ew3YIQAACEIAABCBQJwFEYJ3gOAwCEIAABCAAAQikmQAiMM3ew3YIQAACEIAABCBQJwFEoANubW1N5ufnZWZmhr8mYKB8qXxqvvAxsR10fgfFihk3G90eHR0V/afKevLkSfHz2NiYVXxQ2vr6ejFfNpu18gWlPX78uJhvfHzcyheUVigUivnu3btn5VPnhLZtYmKibNrq6mox3/376ofRRYLS8vl8Md/k5KSVLyhtZWWlmO/BgwdWvuXl5WLaw4cPy6YtLS0V8+kbWFDa4uJiMd+jR4+s8oLSfvjhh2K+6elpK9/CwkIxTcWMegWl5XK5Yr7ZWfuH4YPSVIxpznNzc1Z56r1SmjpGvVS5Op8qu1yaslPnU7aqV1CaaqPOp9quXoqPTlOMyqUp3jqfYq5eQWnKfzqf8qt6BaUp3+t8KibUS8WNTlOxUy5NxaHOp2JRvYLSVFzrfPqeEJSmzgmdT50r6qXOJ52mzqlyaer81PnUOapeQWnqfNf51DmvXkFpOo96b/RLn0ONrOdHGy08DiPVCRd0gyAtvcJBX0R1/OHj9Pqy0eehP1Z0zETxHseFPAo7KQMCEEgWgTiuHXHoq1SIQH2TSVYIYE29BIL8GZRWb/kc1zwEGh0XcVzIm8cbtAQCENAE4rh2IAId2o2+EWin8h4PgSB/BqXFYw21JJkAcZFk72AbBCDQSAKIQIcuN4JGhln8ZQf5MygtfsuoMWkEGh0Xeh5S0tqNPRCAQLIJxHHtQAQ6MdDoG0GyQ635rAvyZ1Ba87WcFtVKoNFxEceQTq1tJj8EIJB8AnFcOxCBThw0+kaQ/HBrLguD/BmU1lytpjX1EGh0XMRxIa+n3RwDAQgkm0Ac1w5EoBMDjb4RJDvUms+6IH8GpTVfy2lRrQQaHRd66ZVa7SI/BCDQ2gTiuHYgAp0Ya/SNoLVDOf7WB/kzKC1+y6gxaQSIi6R5BHsgAIG4CCACHdLcCOIKuXjqCfJnUFo81lBLkgk0Oi70orpJZoBtEIBA8gjEce1ABDp+b+iNIL8sC8v2CuSBYbZekOWFZamQwzqs8GhIRuxF5IvFFJYXZNleVL2Y5tmoVreTeSE7JA885Tg22Yufe4rUHzZcd8h26/pqeQ/yZ1BaLWVGmbcquwgrq1pXyBiJ0KREFdXouIhjXk+igGJMdQKFnDyamhX7tzSqZ09djuVZmXqUq3pPS127YjY4jmsHItBxakNuBMs35aN/3yXt7e3W367ffiAD9i8QObUuy83/c0B2vbxL9v56t+zatVeOXLB/Qqkk1tZvyge/OiIDWqhN9siRX5tlfyQ3zSuKqvu3u6T93/bK3l/tkl2/PiI99q84lRQt8+fl4L5TYv+QlMiDC0dk7y7b5vb2XXLg/9z0Xqx8de/94+cy4q/baHf73j/46tbtdurYdUA++MYDptTGGlOC/BmUVmOxG89eid3gX4qxomNGvx/4rExcVLKoUl3quKrxWabwh5/LASembft2ye6335Pz37tBcK27Xdp/9YEMlfsSsT4ip/a1S3v3tTKVxJfc6LiI40IeH634a5qecH92T7FUfxPTIlZ69oHkzG/PuQeSHc3KA/XratPuz4XZx41JdmJK5t0wFZGcPMiWlq/yZx88tPepyqziVL5xeWj/0poBYlmm7ql9E6JylrPXOEBWHt2T0bFJsb7TFxbk0URWxoo/Lzgm9x7MyqLTLn952fFJmVmcq2B3zmXjVLo8+0Dume3MTsijBfun1sRiNiYT0x4wdhlO2+1ifpCH4w4D+5flrOSiH8wGWmXekylvkWYOtkMQUHHY6Bci0CEc/Y1gQXoOt8vu7gFZUDfC9QUZOnnQc2Nc6P2DtO/7SEb0RWzyczn48j45pdWY4f3C5SOy+/hNO2V9SD74VbscPHPP/qa1viAD7+2W9t/3iP2LkQvS8/t22XdipPhN7MFnB6XdEHpG0XLv9D45+Hf7SLn9gex++aB8es8xamFA3tvdLn/odfb76y7MSP9/7pb2w0bdZrulIPc+OSDtv/pIRpxKFy4ckvZfvScDTpELQ6fk4Mu75YPbplUb2w7yZ1Daxmqp8eiq7FTv64L1G6Xqtz+tv4c9cmRXHWyq1lU9Psu2zhKBB+Rz++ddRfIzdmy/fEh6nJ5qSwS2t0s58WrFgBKSLSAC47jIlvVVE+ywRcakzC4uivpdW/W3vOqKrbGJafdLaokIzMrkrH3MwtyUTCghNDYh0/bP1IpIQVaW7P2zk+r3X+/JlFPH0oojtDwicFRGJ6aleLgqYfa+I+AMEZgttdd1xaIlpsYfKiXliNCxcZmcnpfFxQWZm5qQ7Oio6HZ52j8/LfdVG7KTMlPW7oJHBK5MT1j2KQE8t7Aoi/PTMjmufsNWieWC2CJQiTvns2OoVa8pAucnZWx0TMbGRmXcUMKBIlBWLGFs5nPbz1ZYAnFcO+KoozV/Nm70lOxtPyL9uudOeV315u1ulyOXbYFl3Sg9N8EH8vlv2+XgOX+v2IKcf9sQh/c+l0O/PVUUVVZAXXtP2tvfE7tf5Zq8194u75mdLNaN+6Cc9xft62G898UhOXBayzU7VE07C18fkfZf++pWPYntjn35a/KXXx+RfkfgWSV4RMOInPp1uxz5Witfu46bx3dL+38OFEWrnVr//yDBF5RWfw21H1mVXUCRDz47YAhsX4b5AXnvt3vl0BelvYRV6woRn77a3I8ef+rkISu2D12wHa9iZt/hQ7L75SPS7+8NyF+T93bvlkOH97WECNSEeK+PQLDIcETg2JglTIq9WAEi0OoV1FUvT8k9JbAmffNqlBx7oESgLeTs7I5AM0VgNivZ0TFxD7d7x8bGlKgyReADUZ2Rga8VZUNWHiyIFKzeyjG5P+u9Hi5P3ZNRpx5/+/12+j+rOt1jnDaMT7lCWWUozMnk2KiM3nskKxazUUvcjRo9q1YZhgicnxyT0fGHMvtw3O3F9NTlbe2iyjf+UIxOQ28GPiWCACLQcUPUAmHmi4PS/tvPxX97HnivXXZ/OGTVavUE/vZTeaCHzJb75UhQT+C9U7IvoCwzgqybfrGnz+4JPHDGrX1ZibfifvdI1cO4yyNE3X32VkH6u9pl32m7e/Lm+0G9Nw/k09fbRQsAfwmiBMfLzlD2o8/lYLvRi6Qzf/OetO/+QGwyOrH+9yB/BqXVX0PtR9bMzhFLZXtI9fDxwc/Fr+2r1RUmPsu2MFAE2uL+4Be2JUoEHvhsxIodHe+6vJGT+6S9q19GlMCtGHv6iMa+Nzou5ubmGtuAJi/dEiOjWbk3MSFqyYyJKVvA2SLlkSPezF4tczjY2S4yWrCHUQPESamYChCBE49k5r4ST7aoUr1sVu/hlHo3RGCAvUUTLNFl5y2t08llCUU1JL1gCDol3hblkRp6Hrsvs07WoDKKIrDwyBK9WY8Stg+cU6JO2ayF8+y0TIz5eiC1CCzMyP1R1QO4KPLDQxkfHZX7M7ZwLdZVbKCzodgoUelP53NoAnFcOxCBjjuivhFYPTgBNzizV01EzY3bJ7vVvL1f75Xdu/bKe5f9t3PxDtcGhY8z9OcRYWq+1+u7ZddeVbZ6f883H1EVVJCB/9wtH9wKKtRJs4aHvcN8pUN8dg9maboqwxl2dISvWAJC91ga9Xp6Mo30OjeD/BmUVmfxdR1mCyNXmNuFlGenhundYfagKgsyc/um3DN7XZ1s1eoKF59BdYrYPjSFfEFmLhyR3Ya4L9bvF4zzPXLoZfvYcjaUqbVhyY2Oizjm9TQMTgIKriwC1Sy8ZUcYTcj0rH9OYNQicNoRQar3zhaJlsCyxGBIEajyOvMBi0LMz9kvAovzBe1h2/szbvd6RRFYLKdUihXr1iIwJ1JwegVVmx6puZiOCLTmMKqhcmsc3B7OHr0/Y43clBWBhtj1N4/P4QjEce1ABDq+iPpGUO4GZ4rA5Wt/kb279slf/j4gNwdvSv/pP8juX/keovAN15aEzvoD6fn9btndfc3o7l+Wa+/vlV2v/0XOf3NTbg72yymV5/c9bq+jKsj3QEhJ2ZM98odf7Zb3rrkXnOLN3ZO5nJBZlpsf7pNdBz9360UEesiJlGGXH5AjG5gnWc1PYeLTZ6j70fJhu/MFY6/s/bd2ad91QD4adNWoWf/Qh7utnj/1/Pu17t3FnvByNrgVxbMV9bnvtzqOC7m/zmb6XE5kWOm6p2rZ7sUatYaHK/QEbnQ42KqvIJaA0kPAShj5RWClHjBDHOnh4Mk573CwLbrsYWe7/XqO4bI4j3MUXVxRBOo5h07PZfEgmfcNB2uxXHB6Vu25f7YItOf3qTj2/t2TRyvm0LNburXliF36wX1cavgYx7UDEeg4JOobQfXhNnv47A9fuQJLmWLNjTN6ED0PhPiDZ91+KKP48Ineb833+oN3LpYzH9GcJ+h5IEQfq99n+uWIEoDfuDd2tavaMKM+XH07Hzl5UHYd/FT0MybWPoaDXUTWVvBQevVeQF8xvo/V/FQ9Pn0Fmh8tEbhPTg3ph1hKlzcyRaBY0xx2ywdfnJJ9xhzBVhGBcQzpmO5ptm2vCPI9GKJFoBrXcHqx7AcctDBzHwxZnH/kPhjivexayErFVNBwsP2ksDhisvjgQ4kI1KLNtbfoF6t3blys50K0SBsblwczC9ZDL/PT963hVu+DIeWHVUvt9goz98GQRzKvHnpZmJOH9/wPhmgRqKxclukJtd/pCXSGfyemDaG6Yg8zq/aX+scWqswJLHq87o04rh2IQMc9UYtAUfP42isJsYCHN0TkwRlzCND3QIgZSuUEoMoTOLTqExuVehjLCEBVtBKl7b/+SEb0PEaVaD0YYg4PlhGAlv33rKVBqolfK+sG/gX5MyhtA1XUfGg4diKywV5AZVjVuqrGZ4Xm+Yd4A7J6RKCKazX/r71d9p10HzpqFREYgIekGghYIsPXC6W0n5VuiEBV5LL1JKzZE+jtvcreeyCzeu0Vnw2lYqqCCPQdW9ITGGCve4hd7j17bFVkdV6mJtRDKa6t2YlHsuBoLltk1S8C1bSfxZlJGVcPgug6xu7Jg1lHCVvi2RSBlqIuLo9jPRCi5iAaGlCVadk1Nin3S5bwUcPidu9h0FxElwNbSSCACHS8EL1AMJbgUCePWiLmxAHr4QxbQKn5eO3SbvaUqeVYfmU8YKFu1G+fd5Z9McJFC8Dfn5eRGd0bo96dHhlLRBhLyKiZed+8J7uNJTzK9jA6AvAP50ZkRi9Tot71Ytfm0iNKCBZmpKdLD/cpGx0B+NsP5NqkzzZHOBaXiJm3ryoLQx/JAfV0cYRLIgX5MyjNoNr4zarsbBOsByeKS+5UMStfCH6iumpd1eKzQr11iEBZfyD9p3tkxHhavlVEYBwX2QreYlcCCfzgPDlbsuRgAm2tyySr9zBoTcW6SmvZg+K4dsRRR2suEaPCdnlEPv/j3uICwLv+/SO5aY6uqv1de2VX+y7ZvXeXtL/sXZh55ORed/0+4zSwhvI8i/XqhZ3d3rjl7z+3F5Petdues/VvB+SjW3oMRD3xG/RAyIx8flCX5Xs3n06eGZAP1ELUlg27ZG/XeXfIVz+xGmCfOxS9LCOf/UH2vuzUoWwz5pMZTa17M0jwBaXVXUG9B1Zip8rUQ6dh1kz8/iPZ3d4uu94rs7RO1bqqxGe5NtYjAgPKahURGMe8ngC8JCWZQGFOHk5OS/OKwGm5/2A2+Atqkv2SMNviuHYgAh2nN1QgrBek4OlK90daQZZ1T1tx14wMfOLtOSnuqmWjsCwlReeH5Pzpa6U9jLWUq/IWClIwh4VrPV4Vka8Ipo4S7UOC/BmUVncFGz0wAnbiiEB3kfAyRlWrq2p8lim3SZIbHRdxXMibxBU0AwIQMAjEce1ABDrAG30jMPzKZgwEgvwZlBaDKY2totxwcGNrbarSGx0XcfwIfFM5hMZAAAIWgTiuHYhAJ9gafSMgpuMlEOTPoLR4raK2JBIgLpLoFWyCAATiIIAIdChzI4gj3OKrI8ifQWnxWURNSSXQ6LhQv3LBCwIQgECtBOK4diACHa80+kZQq/PJvzECQf4MSttYLRzdDAQaHRdxzOtpBj/QBghAwEsgjmsHItBh3ugbgde1fGo0gSB/BqU12g7KTz6BRsdFHBfy5FPGQghAoFYCcVw7EIGOVxp9I6jV+eTfGIEgfwalbawWjm4GAo2Oi7W1tWbARBsgAIGYCcRx7UAEOk5t9I0g5thp+eqC/BmU1vKgACDEBUEAAQi0KgFEoON5bgTNdQoE+TMorblaTWvqIdDouIhjSKeednMMBCCQbAJxXDsQgU4MNPpGkOxQaz7rgvwZlNZ8LadFtRJodFzEcSGvtc3khwAEkk8gjmsHItCJg0bfCJIfbs1lYZA/g9Kaq9W0ph4CjY4LdSHXf8q+J0+eFD+PjY1ZJgelra+vF/Nls1krX1Da48ePi/nGx8etfEFphUKhmO/evXtWPjXnSNuml6MISltdXS3mu3//vnVsUFo+ny/mm5yctPIFpa2srBTzPXjwwMq3vLxcTHv48GHZNLWArrZZ38CC0hYXF4v5Hj16ZJUXlPbDDz8U801PT1v5FhYWimkqPtQrKC2XyxXzzc7OWvmC0ubn54v55ubmrHzqXbcjKE0do16qXJ1PlV0uTdmp8ylb1SsoTbVR51NtVy/FR6cpRuXSFG+dTy9kHJSm/KfzKb+qV1Ca8r3Op2JCvVTc6DQVO+XSVBzqfCoW1SsoTcW1zqfn2AWlqXNC51Pninqp80mnqXOqXJo6P3U+dY6qV1CaOt91PnXOq1dQms6j3hv90udQI+tp3d8ObiRVyq5IIOjGHpRWsRB2tgQB4qIl3EwjIQCBAAKIQAeK+talbwa8zzQFC/1NWsc9Pm4Ovzbi/PTHio4Z3iEAAQg0MwFEoONd1U2MSGgekaB8qbv+9QmMj5vHv1EKwaBY0THDOwQgAIFmJoAIbGbv0jYIQAACEIAABCBQhgAisAwYkiEAAQhAAAIQgEAzE0AENrN3aRsEIAABCEAAAhAoQwARWAYMyRCAAAQgAAEIQKCZCSACm9m7tA0CEIAABCAAAQiUIYAILAOGZAhAAAIQgAAEINDMBBCBzexd2gYBCEAAAhCAAATKEEAElgFDMgQgAAEIQAACEGhmAojAZvYubYMABCAAAQhAAAJlCCACy4AhGQIQgAAEIAABCDQzAURgM3uXtkEAAhCAAAQgAIEyBBCBZcCQDAEIQAACEIAABJqZACKwmb1L2yAAAQhAAAIQgEAZAojAMmBIhgAEIAABCEAAAs1MABHYzN6lbRCAAAQgAAEIQKAMAUSgA0aB4A8GxAAxUOZaSTIEIACBpiOACHRcGgeIposeGgSBJiPAdaDJHEpzIACBigTiuOb9qKIFIXbGYWQcdYRoKlkgAIFNJMB1YBPhUzUEIBA7gTiueYjA2N1KhRCAQD0E4rgg1mMXx0AAAhBoBIE4rnmIwEZ4jjIhAIHICcRxQYzcaAqEAAQgUCeBOK55iMA6ncNhEIBAvATiuCDG2yJqgwAEIFCeQBzXPERgef7sgQAEEkQgjgtigpqLKRCAQIsTiOOahwhs8SCj+RBIC4E4LohpYYGdEIBA8xOI45qHCGz+OKKFEGgKAnFcEJsCFI2AAASagkAc1zxEYFOECo2AQPMTiOOC2PwUaSEEIJAWAnFc8xCBaYkG7IRAixOI44LY4ohpPgQgkCACcVzzEIHlHD54Qg4dOmT//e2GJ9eNvznpar/e9/BLOarzHzoqXz4UEU+accyhQ3JiUBU5JV8e9abrOo/+fcqp84accMq1j9GmlB7rHqPziJi2eo+386j9VrrZ3mI7Dsmho1+KtsQ6IqBNpeWW2nbo0AnxUhSRkjodborM34+6/E17rG2jLLMM7Qu3+WwlkEB/f7/k8/kSy1Ta119/XZKuE+K4IOq6eIcABCCw2QTiuOYhAgO97BcxhugQr7DSIskrWjYuAg9pISlBItBN06JRv3uEoF+wlYgkVY7TNlNM+URXscwweQx7tU3Fd0NQenl5hbASlZX2u4Kysp8CXUviphJQAlDFw7FjxzxCUAlAlab2qTxBrzgu4dPwmwAAGYdJREFUiEH1kgYBCEBgMwjEcc1DBAZ5tiiejspRp6euKIQMEXj0qOqtsgWf3eOm85eKwNLeMlWxIWK0QCvWrXsLXcGny3AFUlDPmStYi/mOHnV6Kd38VrNVXVqYFQWezuPaZrfd/ayFryrD7Wm06y3WWRSx3h4/uw1um4o9qSYLbZNlpJvX9EHRfkuwau6HpCSPlZF/SSGgxN5f//pXjxA0BaDapz4HveK4IAbVSxoEIACBzSAQxzUPERjg2aKQ+dsNt0fKECZa+Jz4mz1kfGLQESpHT8gJSzSWisBib5hnONMQVr7eN7e3yxVBWgTq+k0xVtoMt+wTg+62KZJUO4ufiyLQ2yvn1uHaUTxGVVo8zm5zKNtKhK5tfZG77p20ksvUaw4Zl/FTKRNSkkDALwR1D2AlAajsjuOCmAQ+2AABCEBAEYjjmocILIk1VzBZoqsoWHQPmdv75Yo/u6ft6N9vOHP8NigCDcEpxvBqTSKwaLevh84oWwk2XaYr5nwi8JDuXSsjxqqJwOJ+u1wvU6N+U9SFEoHV/VTiWhISQ8AUguoLUjUBqAyP44KYGEAYAgEItDyBOK55iEB/mBXFUzkxZIpAV4ioG5nb41YqAotiy1OfcbwaDjYEk9vb5oovXYbbY+YKU/dYn+gr6WHUx6hy3aFj93i935yXp/IZtvqEpN3L6a/XLUc1WfcQ2m1w21T3cHAIP3lQ8yFxBLQQDCMAlfFxXBATBwmDIACBliUQxzUPEegLL1dglYpAPTRqChq9bQ/faqHkCKCqQkXnd58y9panjHMFkxaBZpp3mFmXY5RbIgKdnj0lOPU8RFWNIUBLytSir0KeINFaUk7xqWhTYJZydtvpbb9bR+XjtZ98ruVjAgkoIaj+wrziuCCGsYM8EIAABOIgEMc1DxHo86RejsUUHKZAUgJFCzVLrGhhZAklLb7qF4GeZWUskRYkApXRui5DRGlRp20yH84weuOUYO035wOq4orHGOVZAtLbo+exzxGYXtFWxjaz11EzL6nTV5eVz22/65OgNG8bSm3SlfKeVgJxXBDTyga7IQCB5iMQxzUPEdh8cUOLINCUBOK4IDYlOBoFAQikkkAc1zxEYCpDA6Mh0HoE4rggth5VWgwBCCSVQBzXPERgUr2PXRCAgIdAHBdET4V8gAAEILCJBOK45iECN9HBVA0BCIQnEMcFMbw15IQABCDQWAJxXPMQgY31IaVDAAIREYjjghiRqRQDAQhAYMME4rjmIQI37CYKgAAE4iAQxwUxjnZQBwQgAIEwBOK45iECw3iCPBCAwKYTiOOCuOmNxAAIQAACDoE4rnmIQMINAhBIBYE4LoipAIGREIBASxCI45qHCGyJUKKREEg/gTguiOmnRAsgAIFmIRDHNS81IlDB4A8GxEBrx0CzXNxpBwQgAIFqBBCB1QixHwIQgAAEIAABCDQhAURgEzqVJkEAAhCAAAQgAIFqBBCB1QixHwIQgAAEIAABCDQhAURgEzqVJkEAAhCAAAQgAIFqBBCB1QixHwIQgAAEIAABCDQhAURgEzqVJkEAAhCAAAQgAIFqBBCB1QixHwIQgAAEIAABCDQhAURgEzqVJkEAAhCAAAQgAIFqBBCB1QixHwIQgAAEIAABCDQhAURgEzqVJkEAAhCAAAQgAIFqBBCB1QixHwIQgAAEIAABCDQhAURgEzqVJkEAAhCAAAQgAIFqBBCB1QixHwIQgAAEIAABCDQhAURgEzqVJkEAAhCAAAQgAIFqBBCB1QixHwIQgAAEIAABCDQhAURgEzqVJkEAAhCAAAQgAIFqBBCB1QixHwIQgAAEIAABCDQhAURgEzqVJkEAAhCAAAQgAIFqBBCB1QixHwIQgAAEIAABCDQhAURgEzqVJkEAAhCAAAQgAIFqBBCB1QixHwIQgAAEIAABCDQhAURgEzqVJkEAAhCAAAQgAIFqBBCB1QixHwIQgAAEIAABCDQhAURgEzqVJkEAAhCAAAQgAIFqBBCB1QixHwIQgAAEIAABCDQhAURgEzqVJkEAAhCAAAQgAIFqBBCB1QixHwIQgAAEIAABCDQhAURgEzqVJkEAAhCAAAQgAIFqBBCB1QixHwIQgAAEIAABCDQhAURgEzqVJkEAAhCAAAQgAIFqBBCB1QixHwIQgAAEIAABCDQhAURgEzqVJkEAAhCAAAQgAIFqBBCB1QixHwIQgAAEIAABCDQhAURgEzqVJkEAAhCAAAQgAIFqBBCB1QixHwIQgAAEIAABCDQhAURgEzqVJkEAAhCAAAQgAIFqBBCBBqEPv83L/3w/Jz95d44/GBADxAAxQAwQA8RA7DGgdIjSI3G8EIEOZQUc8Yf4JQaIAWKAGCAGiIEkxEAcQhAR6IhAegA56ZNw0mMDcUgMEAPEADGgYkDpkka/EIEOYU46TjpigBggBogBYoAYSFIMIAJFJA6lmiSnYwsXIWKAGCAGiAFigBhABCICmavIxGRigBggBogBYqAFYwARiAjkxG/BE58eAHoAiAFigBggBhCBiEBEICKQGCAGiAFigBhowRhABCICOfFb8MSnB4AeAGKAGCAGiAFEICIQEYgIJAaIAWKAGCAGWjAGEIGIQE78Fjzx6QGgB4AYIAaIAWIAEYgIRAQiAokBYoAYIAaIgRaMAUQgIpATvwVPfHoA6AEgBogBYoAYQAQiAhGBiEBigBggBogBYqAFYwARiAjkxG/BE58eAHoAiAFigBggBhCBiEBEICKQGCAGiAFigBhowRhABCICOfFb8MSnB4AeAGKAGCAGiAFEICIQEYgIJAaIAWKAGCAGWjAGEIGIQE78Fjzx6QGgB4AYIAaIAWIAEYgIRAQiAokBYoAYIAaIgRaMAUQgIpATvwVPfHoA6AEgBogBYoAYQAQiAhGBiEBigBggBogBYqAFYwARiAjkxG/BE58eAHoAiAFigBggBhCBiEBEICKQGCAGiAFigBhowRhABCICOfFb8MSnB4AeAGKAGCAGiAFEICIQEYgIrDsGDtwqSHamIKfPVrqYrkjPzGPJjqzUXc9m36x+8eWK9Ew+lsmVJ7K69kQWFx/LzWxe3jnha/d3j61ravY7X3oTxlj3yGPJKr9W/VuTbqv9y3JlVURWC3KkCXlsdoxSf/Ofc43wMSIQEZjaG3MjTgjKrO1CemTiiX0NWal0Y1+VrMo1txpDrC1JT+6JTI4uR1PXsSU5PeW0UbVh3RaBq+v60vlEsneWZYcWNS0kAs/OaQbV3h/LWURgNPGo44x3eEYUA9XO3o3un5qa2mgRVY//UdUcVTLEYSTiojZxAa908CqKQBFZnDDEkOcCFacIXJGba7YtG4+hRTk7ZwvA1cWCnP5ywbjx5OTV/lXJrvra3UIisISv03YVByX7rHigJzCYSzrOdWxvTj9VkUcb3h2HvkIEem64zRmoXICS6VctAletUdAnkv1uMUAAxCgCj63KpCNINxozrw453X0La3LgWEj+iEDry0Awe0RgMJeQscV1PuDaAruNxtSGVV6VAhCBDqCNOorjOdmTGAO2CHwiV66sStYSguvSUzI/sIIIPLEsZycey+yqPcw6Obkmx/5vzr3Yf7wiF6cfS3ZqTY74hNiO/jW5O/NYrlxXwlP1zOXlfPaxWNPO5tbk/J1VOX8nL0c+0bGTkwMDq3K61+zR0/v870tycUmdvOty8Uv/vgqfDRHYeWlNbi44cwjnCnL6gtEu84buYzA7V5Dz/T+4Q8xm3ndVG9xyV1fW5W42L//hn5uojjm2JB9lDbZTa77eTKcdvvpLfOCpv3rbQ/UEHluW09rvq+tyd2RFOgPr8bZXzcW8cmtZfuHLa81PHM/LqyeW5fzkuiyqeZtza/KRFYs5eedGQbLOfM7JydXSuZxOeb/oXZUrM/bxiu3NkZXwXwB8NiXxfMWmCvHbov6rouE2vBsRiAh0b+gtepI184W3KAL75mTHQMESYKLmB3oEW7AIVCJuVgnH9SeihMf5bEEmlYJbX5cr/a5g6rxj98h5hpuP5eWuOrZYlz0X0O6RNObura3LxV7nwn/FFogieo5ahRvCuTWZVefuSkHeqSVu9ZDo0rrVrtm5x5KdW7e5SIBA/nJVJp1eVCvvzGObgYjMjvuH13+QY5PO/MTVdfuBDF3248dy1iO+tYh9IrMzBbk4oR5qUVwey9m/ue0O64NQMazbXm04eO2J7fcVuw2Wz9XzIg9XfMJ3UU5P6+H4x3JleM0SaJbIn1n1iEZrfuLautXG1UWHuQqbpTU5Pf7EjjH1AMuiw29pTf7D49ecHBl1/KTEX3ZVLioxaZXhj2eXXygunno4FmbJioENq7wqBSACEYGIwCa+CZgiUPXGFYeH58ybdJAIdESKX7wcc4YMc6vyapGbnpv3xBGHP8jZGXUzfyJX+nwX1L6CLJYbDv5yTWYdYVD16dR+u5yaH2ZxhNDq4pp0G71zrwYKJFeomaL3J++67b15yW3fjmu6l9NkOyc7tK0mM0eQz46Yw/M5efW02Qtaiw9cO8rexAPbaB7n+FaeyN0bS4bg0+mP5azx5UG31yP+350T+0vBEzHZ2A+pqId03HJ3aNG/borvnHxkPejzRG4OGLap2FBC1BO3LtvJoR+4jhXPR4MbaamPiyoabsO7EYGIwNSfJGVvelwAHdFnijFXwLjzAwNEYAWxdmBUKbV1OW8Igp+cdYabVwry0Xe2GJocNgWOc2OqUG5Nfrxmdc/V/kSzI4RKlohx5ip6RKVjq0znS8+Rkn05sYXOulw8578JB+xzRODqVL5k6LTIoQKrQB9Ui/ewIjBgiRjvlwnVPt0mrzC0bc/L3XX7gRzdFpuNv4fXibvcqiE45+QnAT4qrV8zdoSyv4xqLNhfGtMwSSSTDau8KgUgAhGBiQx8ffPgXd/s6nsPvHlqwaZ66qxh3QAR6NyI5bGz5Mqa8e4Mj/p7+V69pYdzRSTn7Q0r+rGCsCnmCXMz0iJsYc3okQzBKEBg2PWWZzA5HNTL5OQvDkc7vWVrBTkWYL/ugc3e0jYuO3Ma7aFxNdx+2j/PsA4fVGTolBdqTqCvDaVxpHsHxVqXUa3NaP5Zl1VjyaGKItDIZ9kf4CP7+OC6rOWAAoRrRRa+9pFXxyXvSYuFKhpuw7sRgYhARGAT3xBKb972Rb44RPn4sXx0rJIAWpID54L+Fkt6sIplqnNqYc0zJ6x4YY1KBL5r9zZZ8wfNHslqvgwQGLZt5RmU9BpadTj5i+LDEUXFz96baVEEehapXpB31GLeeh6cGu4059I5tk4OB/FXaaU+KHIO4tAIEbhakI8C42NJ9p12541GIwLXpadMXQfOmsPoXvYVmQRxIo17QoJiYMMqr0oBiEBEICd8gk74qG9Y5USgqqdzWA3rqnlWj+2HLMweGT1nLbsULj6O2ev/qV+bOJ21y23ocPC7OfnIeSjBPyetIsNaRKDDILDn7JM1a6kbd/j4B+lZUDR9w+RObB17WGaOpI69E8vWItqqhLvXHBFTqw90WeXeIxWBTnvXH8vpECJ8oyLQ5lfjk+DlOJAe7pyGUyI4WRfpBv5DBDpwK944OBkScTLgo9p7OCqJQPcBB+ckMEWg6mlTw75qeLPkJr8gvzAeqlDzw4oixxpe1g9UmBP+Hdur9AT+4qy3B6miz8+uyqSlN5/I5LD/SV1VX07eGX4sk5N5t1eyFhGonnBW5avePR8DLaDNBxL+Q4vfO765kFogrxWcn2cr40dtW3HIuBYflCnTvHZFKgLn5MBIebG/48SCZ57fRkXgT5yHSEqfUJ6Tn5xYKOmVrhg3JhO2ubYnPAYaqP+sohGBiEAuAgm/CGzkhlZZBKq16pblilqaRL08InBOOp0HPGT1sfR8u2wNC3er4Uu1BsjSWnFplsCnRI05e5715Xqdp3pXCnK6d0XOTxbkI71O4CVnCRs1RB3SJ7+4VLCfKFb2qzX5Juz1By9OPpbZNbtZq7k1eUeLOC20PMOySkAFDAer3lKHgfpFkrNfqyHYZTk28th6wtld/sYRYEWWT6zfYX5HDV1+vSo3reFe70LdarmexbV1uXJ9SV49Nie/+DIvN5UfrOF5V9Dp+qv5IFSMRCwC3dhRSwitSrdqb++K9EyppVyeSPaGO5dywyKw+ES2yOLMmhzrVb5YsdawVMvEzGbL/QqKyzIUo5BxR1lwjSsG7KtY4/4jAh22cTmUerh4xBkDVUXgu/YyG9bSLD4RqHrSDlwryKQjpvRlaHHBWFj5hH89QO1fdzmayRF3WRCr99FaPsYp7fG6XLzkiAUtHGsQgYrljv+bl4tzT8T9vWCn7LV1uXvHt3BxjSLQYnCjUBSURQYzZRY0PrEiPc5P2em8osTeNZPBnPzkbF6uLDhr4umMq4/lfMmC1SF8EFa4RC0CVb1q8WfTn6otj20RbIr/jYtAZ3HtiXWvn601LPOuyA/Lgnx8+U9JDOjLQ6PeEYEO2ThvzNSlhQLvaYmFHacX5cDn5X4lo3Y/litPpauesXq5qOFk9cDERsooV7dlc+iHMRak81yIoe1jP8i+MPmU2I3YB+XaWV+63d5OzzSB+v1Y2YacvPp5CLYpuclXbmujGFJuWrg3SvzpchGBiMC6b7hpOYmwkws+MUAMEAPEQBpjQIu1Rr0jAhGBiEB6DIgBYoAYIAaIgQTGQKPEny4XEYgI5MRP4Imfxm+s2ExPCzFADBAD0caAFmuNekcEIgIRgYhAYoAYIAaIAWIggTHQKPGny0UEIgI58RN44vNtOtpv0/CEJzFADKQxBrRYa9Q7IhARiAhEBBIDxAAxQAwQAwmMgUaJP10uIhARyImfwBM/jd9YsZmeFmKAGCAGoo0BLdYa9Y4IRAQiAhGBxAAxQAwQA8RAAmOgUeJPl4sIRARy4ifwxOfbdLTfpuEJT2KAGEhjDGix1qh3RCAiEBGICCQGiAFigBggBhIYA40Sf7pcRCAikBM/gSd+Gr+xYjM9LcQAMUAMRBsDWqw16h0RiAhEBCICiQFigBggBoiBBMZAo8SfLhcRiAjkxE/gic+36Wi/TcMTnsQAMZDGGNBirVHviEBEICIQEUgMEAPEADFADCQwBhol/nS5iEBEICd+Ak/8NH5jxWZ6WogBYoAYiDYGtFhr1DsiEBGICEQEEgPEADFADBADCYyBRok/XS4iEBHIiZ/AE59v09F+m4YnPIkBYiCNMaDFWqPeEYGIQEQgIpAYIAaIAWKAGEhgDDRK/OlyEYGIQE78BJ74afzGis30tBADxAAxEG0MaLHWqHdEICIQEYgIJAaIAWKAGCAGEhgDjRJ/ulxEICKQEz+BJz7fpqP9Ng1PeBIDxEAaY0CLtUa9IwIRgYhARCAxQAwQA8QAMZDAGGiU+NPlIgIRgZz4CTzx0/iNFZvpaSEGiAFiINoY0GKtUe+IQEQgIhARSAwQA8QAMUAMJDAGGiX+dLmIQEQgJ34CT3y+TUf7bRqe8CQGiIE0xoAWa416RwQ6ZP/n+znEEGKIGCAGiAFigBggBhIRA0qXNPqFCHQIf/htPhFOT+M3FWzmGzYxQAwQA8QAMRBtDChd0ugXItAgrIDTIxhtEHNRgCcxQAwQA8QAMRA+BpQOiUMAKvmDCDREIJsQgAAEIAABCECgVQggAlvF07QTAhCAAAQgAAEIGAQQgQYMNiEAAQhAAAIQgECrEEAEtoqnaScEIAABCEAAAhAwCCACDRhsQgACEIAABCAAgVYhgAhsFU/TTghAAAIQgAAEIGAQQAQaMNiEAAQgAAEIQAACrUIAEdgqnqadEIAABCAAAQhAwCCACDRgsAkBCEAAAhCAAARahQAisFU8TTshAAEIQAACEICAQQARaMBgEwIQgAAEIAABCLQKAURgq3iadkIAAhCAAAQgAAGDACLQgMEmBCAAAQhAAAIQaBUCiMBW8TTthAAEIAABCEAAAgYBRKABg00IQAACEIAABCDQKgQQga3iadoJAQhAAAIQgAAEDAKIQAMGmxCAAAQgAAEIQKBVCCACW8XTtBMCEIAABCAAAQgYBBCBBgw2IQABCEAAAhCAQKsQQAS2iqdpJwQgAAEIQAACEDAIIAINGGxCAAIQgAAEIACBViGACGwVT9NOCEAAAhCAAAQgYBBABBow2IQABCAAAQhAAAKtQgAR2Cqepp0QgAAEIAABCEDAIIAINGCwCQEIQAACEIAABFqFACKwVTxNOyEAAQhAAAIQgIBBIBUicHp6WtbX1w2z2YQABCAAAQhAAAIQqJeA0lVKXzX69aONVrC0tCRzc3MIwY2C5HgIQAACEIAABFqegBKASlcpfdXo14ZFoDJQGaoUq+q65A8GxAAxQAwQA8QAMUAM1BcDSk/FIQCVfotEBDZaqVI+BCAAAQhAAAIQgEC0BBCB0fKkNAhAAAIQgAAEIJAKAojAVLgJIyEAAQhAAAIQgEC0BBCB0fKkNAhAAAIQgAAEIJAKAojAVLgJIyEAAQhAAAIQgEC0BBCB0fKkNAhAAAIQgAAEIJAKAojAVLgJIyEAAQhAAAIQgEC0BBCB0fKkNAhAAAIQgAAEIJAKAojAVLgJIyEAAQhAAAIQgEC0BBCB0fKkNAhAAAIQgAAEIJAKAojAVLgJIyEAAQhAAAIQgEC0BBCB0fKkNAhAAAIQgAAEIJAKAojAVLgJIyEAAQhAAAIQgEC0BBCB0fKkNAhAAAIQgAAEIJAKAv8/oRFqSoMpXIgAAAAASUVORK5CYII=;" vertex="1" parent="1">
          <mxGeometry x="170" y="450" width="234.51" height="300" as="geometry" />
        </mxCell>
        <mxCell id="aum1AoG0NpGCuyagNsFS-133" value="" style="rounded=0;orthogonalLoop=1;jettySize=auto;html=1;endArrow=classic;endFill=1;entryX=0.009;entryY=0.451;entryDx=0;entryDy=0;entryPerimeter=0;" edge="1" parent="1" source="aum1AoG0NpGCuyagNsFS-131" target="aum1AoG0NpGCuyagNsFS-126">
          <mxGeometry relative="1" as="geometry" />
        </mxCell>
        <mxCell id="aum1AoG0NpGCuyagNsFS-131" value="Event creation page" style="whiteSpace=wrap;html=1;rounded=0;strokeColor=#6c8ebf;fillColor=#dae8fc;gradientColor=#7ea6e0;" vertex="1" parent="1">
          <mxGeometry x="20" y="570" width="120" height="30" as="geometry" />
        </mxCell>
        <mxCell id="aum1AoG0NpGCuyagNsFS-143" value="" style="edgeStyle=none;rounded=0;orthogonalLoop=1;jettySize=auto;html=1;endArrow=classic;endFill=1;" edge="1" parent="1" source="aum1AoG0NpGCuyagNsFS-139" target="aum1AoG0NpGCuyagNsFS-142">
          <mxGeometry relative="1" as="geometry" />
        </mxCell>
        <mxCell id="aum1AoG0NpGCuyagNsFS-145" value="" style="edgeStyle=none;rounded=0;orthogonalLoop=1;jettySize=auto;html=1;endArrow=classic;endFill=1;" edge="1" parent="1" source="aum1AoG0NpGCuyagNsFS-139" target="aum1AoG0NpGCuyagNsFS-144">
          <mxGeometry relative="1" as="geometry" />
        </mxCell>
        <mxCell id="aum1AoG0NpGCuyagNsFS-139" value="Choose Templates" style="whiteSpace=wrap;html=1;rounded=0;strokeColor=#6c8ebf;fillColor=#dae8fc;gradientColor=#7ea6e0;" vertex="1" parent="1">
          <mxGeometry x="537.25" y="450" width="120" height="30" as="geometry" />
        </mxCell>
        <mxCell id="aum1AoG0NpGCuyagNsFS-147" value="" style="edgeStyle=none;rounded=0;orthogonalLoop=1;jettySize=auto;html=1;endArrow=classic;endFill=1;" edge="1" parent="1" source="aum1AoG0NpGCuyagNsFS-142" target="aum1AoG0NpGCuyagNsFS-146">
          <mxGeometry relative="1" as="geometry" />
        </mxCell>
        <mxCell id="aum1AoG0NpGCuyagNsFS-142" value="Template 1" style="whiteSpace=wrap;html=1;rounded=0;strokeColor=#6c8ebf;fillColor=#dae8fc;gradientColor=#7ea6e0;" vertex="1" parent="1">
          <mxGeometry x="460" y="520" width="120" height="30" as="geometry" />
        </mxCell>
        <mxCell id="aum1AoG0NpGCuyagNsFS-152" style="edgeStyle=none;rounded=0;orthogonalLoop=1;jettySize=auto;html=1;exitX=0.5;exitY=1;exitDx=0;exitDy=0;entryX=0.663;entryY=0.03;entryDx=0;entryDy=0;entryPerimeter=0;endArrow=classic;endFill=1;" edge="1" parent="1" source="aum1AoG0NpGCuyagNsFS-144" target="aum1AoG0NpGCuyagNsFS-146">
          <mxGeometry relative="1" as="geometry">
            <Array as="points">
              <mxPoint x="660" y="580" />
              <mxPoint x="540" y="580" />
            </Array>
          </mxGeometry>
        </mxCell>
        <mxCell id="aum1AoG0NpGCuyagNsFS-144" value="Template 2" style="whiteSpace=wrap;html=1;rounded=0;strokeColor=#6c8ebf;fillColor=#dae8fc;gradientColor=#7ea6e0;" vertex="1" parent="1">
          <mxGeometry x="600" y="520" width="120" height="30" as="geometry" />
        </mxCell>
        <mxCell id="aum1AoG0NpGCuyagNsFS-149" value="" style="edgeStyle=none;rounded=0;orthogonalLoop=1;jettySize=auto;html=1;endArrow=classic;endFill=1;" edge="1" parent="1" target="aum1AoG0NpGCuyagNsFS-148">
          <mxGeometry relative="1" as="geometry">
            <mxPoint x="520" y="700" as="sourcePoint" />
            <Array as="points">
              <mxPoint x="590" y="700" />
              <mxPoint x="590" y="645" />
            </Array>
          </mxGeometry>
        </mxCell>
        <mxCell id="aum1AoG0NpGCuyagNsFS-163" value="" style="edgeStyle=none;rounded=0;orthogonalLoop=1;jettySize=auto;html=1;endArrow=classic;endFill=1;exitX=0.5;exitY=1;exitDx=0;exitDy=0;entryX=0;entryY=0.5;entryDx=0;entryDy=0;" edge="1" parent="1" source="aum1AoG0NpGCuyagNsFS-146" target="aum1AoG0NpGCuyagNsFS-162">
          <mxGeometry relative="1" as="geometry">
            <mxPoint x="520" y="679.9999999999998" as="sourcePoint" />
            <Array as="points">
              <mxPoint x="520" y="765" />
            </Array>
          </mxGeometry>
        </mxCell>
        <mxCell id="aum1AoG0NpGCuyagNsFS-146" value="Layout" style="whiteSpace=wrap;html=1;rounded=0;strokeColor=#82b366;fillColor=#d5e8d4;gradientColor=#97d077;" vertex="1" parent="1">
          <mxGeometry x="460" y="630" width="120" height="30" as="geometry" />
        </mxCell>
        <mxCell id="aum1AoG0NpGCuyagNsFS-151" value="" style="edgeStyle=none;rounded=0;orthogonalLoop=1;jettySize=auto;html=1;endArrow=classic;endFill=1;" edge="1" parent="1" source="aum1AoG0NpGCuyagNsFS-148" target="aum1AoG0NpGCuyagNsFS-150">
          <mxGeometry relative="1" as="geometry" />
        </mxCell>
        <mxCell id="aum1AoG0NpGCuyagNsFS-157" value="" style="edgeStyle=none;rounded=0;orthogonalLoop=1;jettySize=auto;html=1;endArrow=classic;endFill=1;" edge="1" parent="1" source="aum1AoG0NpGCuyagNsFS-148" target="aum1AoG0NpGCuyagNsFS-156">
          <mxGeometry relative="1" as="geometry" />
        </mxCell>
        <mxCell id="aum1AoG0NpGCuyagNsFS-161" value="" style="edgeStyle=none;rounded=0;orthogonalLoop=1;jettySize=auto;html=1;endArrow=classic;endFill=1;" edge="1" parent="1" source="aum1AoG0NpGCuyagNsFS-148" target="aum1AoG0NpGCuyagNsFS-160">
          <mxGeometry relative="1" as="geometry" />
        </mxCell>
        <mxCell id="aum1AoG0NpGCuyagNsFS-148" value="Configuration" style="whiteSpace=wrap;html=1;rounded=0;strokeColor=#82b366;fillColor=#d5e8d4;gradientColor=#97d077;" vertex="1" parent="1">
          <mxGeometry x="660" y="630" width="120" height="30" as="geometry" />
        </mxCell>
        <mxCell id="aum1AoG0NpGCuyagNsFS-150" value="Event Day" style="whiteSpace=wrap;html=1;rounded=0;gradientColor=#ffd966;fillColor=#fff2cc;strokeColor=#d6b656;" vertex="1" parent="1">
          <mxGeometry x="830" y="590" width="120" height="30" as="geometry" />
        </mxCell>
        <mxCell id="aum1AoG0NpGCuyagNsFS-156" value="Event name" style="whiteSpace=wrap;html=1;rounded=0;gradientColor=#ffd966;fillColor=#fff2cc;strokeColor=#d6b656;" vertex="1" parent="1">
          <mxGeometry x="830" y="670" width="120" height="30" as="geometry" />
        </mxCell>
        <mxCell id="aum1AoG0NpGCuyagNsFS-160" value="Event logo" style="whiteSpace=wrap;html=1;rounded=0;gradientColor=#ffd966;fillColor=#fff2cc;strokeColor=#d6b656;" vertex="1" parent="1">
          <mxGeometry x="830" y="630" width="120" height="30" as="geometry" />
        </mxCell>
        <mxCell id="aum1AoG0NpGCuyagNsFS-165" value="" style="edgeStyle=none;rounded=0;orthogonalLoop=1;jettySize=auto;html=1;endArrow=classic;endFill=1;" edge="1" parent="1" source="aum1AoG0NpGCuyagNsFS-162" target="aum1AoG0NpGCuyagNsFS-164">
          <mxGeometry relative="1" as="geometry" />
        </mxCell>
        <mxCell id="aum1AoG0NpGCuyagNsFS-167" value="" style="edgeStyle=none;rounded=0;orthogonalLoop=1;jettySize=auto;html=1;endArrow=classic;endFill=1;" edge="1" parent="1" source="aum1AoG0NpGCuyagNsFS-162" target="aum1AoG0NpGCuyagNsFS-166">
          <mxGeometry relative="1" as="geometry" />
        </mxCell>
        <mxCell id="aum1AoG0NpGCuyagNsFS-169" value="" style="edgeStyle=none;rounded=0;orthogonalLoop=1;jettySize=auto;html=1;endArrow=classic;endFill=1;" edge="1" parent="1" target="aum1AoG0NpGCuyagNsFS-168">
          <mxGeometry relative="1" as="geometry">
            <mxPoint x="520" y="765" as="sourcePoint" />
            <Array as="points">
              <mxPoint x="520" y="815" />
            </Array>
          </mxGeometry>
        </mxCell>
        <mxCell id="aum1AoG0NpGCuyagNsFS-162" value="Banner or Header" style="whiteSpace=wrap;html=1;rounded=0;strokeColor=#82b366;fillColor=#d5e8d4;gradientColor=#97d077;" vertex="1" parent="1">
          <mxGeometry x="660" y="750" width="120" height="30" as="geometry" />
        </mxCell>
        <mxCell id="aum1AoG0NpGCuyagNsFS-164" value="background image" style="whiteSpace=wrap;html=1;rounded=0;gradientColor=#ffd966;fillColor=#fff2cc;strokeColor=#d6b656;" vertex="1" parent="1">
          <mxGeometry x="850" y="790" width="120" height="30" as="geometry" />
        </mxCell>
        <mxCell id="aum1AoG0NpGCuyagNsFS-166" value="Title" style="whiteSpace=wrap;html=1;rounded=0;gradientColor=#ffd966;fillColor=#fff2cc;strokeColor=#d6b656;" vertex="1" parent="1">
          <mxGeometry x="850" y="740" width="120" height="30" as="geometry" />
        </mxCell>
        <mxCell id="aum1AoG0NpGCuyagNsFS-175" value="" style="edgeStyle=none;rounded=0;orthogonalLoop=1;jettySize=auto;html=1;endArrow=classic;endFill=1;" edge="1" parent="1" target="aum1AoG0NpGCuyagNsFS-174">
          <mxGeometry relative="1" as="geometry">
            <mxPoint x="520" y="815" as="sourcePoint" />
            <Array as="points">
              <mxPoint x="520" y="865" />
            </Array>
          </mxGeometry>
        </mxCell>
        <mxCell id="aum1AoG0NpGCuyagNsFS-168" value="Countdown" style="whiteSpace=wrap;html=1;rounded=0;strokeColor=#82b366;fillColor=#d5e8d4;gradientColor=#97d077;" vertex="1" parent="1">
          <mxGeometry x="660" y="800" width="120" height="30" as="geometry" />
        </mxCell>
        <mxCell id="aum1AoG0NpGCuyagNsFS-177" value="" style="edgeStyle=none;rounded=0;orthogonalLoop=1;jettySize=auto;html=1;endArrow=classic;endFill=1;" edge="1" parent="1" source="aum1AoG0NpGCuyagNsFS-174" target="aum1AoG0NpGCuyagNsFS-176">
          <mxGeometry relative="1" as="geometry" />
        </mxCell>
        <mxCell id="aum1AoG0NpGCuyagNsFS-174" value="Event info" style="whiteSpace=wrap;html=1;rounded=0;strokeColor=#82b366;fillColor=#d5e8d4;gradientColor=#97d077;" vertex="1" parent="1">
          <mxGeometry x="660" y="850" width="120" height="30" as="geometry" />
        </mxCell>
        <mxCell id="aum1AoG0NpGCuyagNsFS-176" value="Card with text and photo" style="whiteSpace=wrap;html=1;rounded=0;gradientColor=#ffd966;fillColor=#fff2cc;strokeColor=#d6b656;" vertex="1" parent="1">
          <mxGeometry x="852" y="850" width="120" height="30" as="geometry" />
        </mxCell>
        <mxCell id="aum1AoG0NpGCuyagNsFS-222" value="" style="edgeStyle=none;rounded=0;orthogonalLoop=1;jettySize=auto;html=1;endArrow=classic;endFill=1;" edge="1" parent="1" source="aum1AoG0NpGCuyagNsFS-178" target="aum1AoG0NpGCuyagNsFS-221">
          <mxGeometry relative="1" as="geometry" />
        </mxCell>
        <mxCell id="aum1AoG0NpGCuyagNsFS-178" value="Schedule" style="whiteSpace=wrap;html=1;rounded=0;strokeColor=#82b366;fillColor=#d5e8d4;gradientColor=#97d077;" vertex="1" parent="1">
          <mxGeometry x="660" y="945" width="120" height="30" as="geometry" />
        </mxCell>
        <mxCell id="aum1AoG0NpGCuyagNsFS-179" value="" style="edgeStyle=none;rounded=0;orthogonalLoop=1;jettySize=auto;html=1;endArrow=classic;endFill=1;" edge="1" target="aum1AoG0NpGCuyagNsFS-178" parent="1">
          <mxGeometry relative="1" as="geometry">
            <mxPoint x="520" y="860" as="sourcePoint" />
            <Array as="points">
              <mxPoint x="520" y="960" />
            </Array>
          </mxGeometry>
        </mxCell>
        <mxCell id="aum1AoG0NpGCuyagNsFS-188" value="" style="edgeStyle=none;rounded=0;orthogonalLoop=1;jettySize=auto;html=1;endArrow=classic;endFill=1;entryX=0;entryY=0.5;entryDx=0;entryDy=0;exitX=1;exitY=0.25;exitDx=0;exitDy=0;" edge="1" target="aum1AoG0NpGCuyagNsFS-191" parent="1" source="aum1AoG0NpGCuyagNsFS-178">
          <mxGeometry relative="1" as="geometry">
            <mxPoint x="800" y="950.8823529411764" as="sourcePoint" />
          </mxGeometry>
        </mxCell>
        <mxCell id="aum1AoG0NpGCuyagNsFS-189" value="" style="edgeStyle=none;rounded=0;orthogonalLoop=1;jettySize=auto;html=1;endArrow=classic;endFill=1;exitX=1;exitY=1;exitDx=0;exitDy=0;" edge="1" target="aum1AoG0NpGCuyagNsFS-192" parent="1" source="aum1AoG0NpGCuyagNsFS-178">
          <mxGeometry relative="1" as="geometry">
            <mxPoint x="800" y="979.1176470588234" as="sourcePoint" />
          </mxGeometry>
        </mxCell>
        <mxCell id="aum1AoG0NpGCuyagNsFS-190" value="" style="edgeStyle=none;rounded=0;orthogonalLoop=1;jettySize=auto;html=1;endArrow=classic;endFill=1;exitX=1;exitY=0.5;exitDx=0;exitDy=0;" edge="1" target="aum1AoG0NpGCuyagNsFS-193" parent="1" source="aum1AoG0NpGCuyagNsFS-178">
          <mxGeometry relative="1" as="geometry">
            <mxPoint x="800" y="964.9999999999998" as="sourcePoint" />
          </mxGeometry>
        </mxCell>
        <mxCell id="aum1AoG0NpGCuyagNsFS-191" value="Talk title" style="whiteSpace=wrap;html=1;rounded=0;gradientColor=#ffd966;fillColor=#fff2cc;strokeColor=#d6b656;" vertex="1" parent="1">
          <mxGeometry x="850" y="910" width="120" height="30" as="geometry" />
        </mxCell>
        <mxCell id="aum1AoG0NpGCuyagNsFS-192" value="Link speaker" style="whiteSpace=wrap;html=1;rounded=0;gradientColor=#ffd966;fillColor=#fff2cc;strokeColor=#d6b656;" vertex="1" parent="1">
          <mxGeometry x="850" y="990" width="120" height="30" as="geometry" />
        </mxCell>
        <mxCell id="aum1AoG0NpGCuyagNsFS-193" value="Short Description" style="whiteSpace=wrap;html=1;rounded=0;gradientColor=#ffd966;fillColor=#fff2cc;strokeColor=#d6b656;" vertex="1" parent="1">
          <mxGeometry x="850" y="950" width="120" height="30" as="geometry" />
        </mxCell>
        <mxCell id="aum1AoG0NpGCuyagNsFS-194" value="Date and hour" style="whiteSpace=wrap;html=1;rounded=0;gradientColor=#ffd966;fillColor=#fff2cc;strokeColor=#d6b656;" vertex="1" parent="1">
          <mxGeometry x="850" y="1030" width="120" height="30" as="geometry" />
        </mxCell>
        <mxCell id="aum1AoG0NpGCuyagNsFS-195" value="" style="edgeStyle=none;rounded=0;orthogonalLoop=1;jettySize=auto;html=1;endArrow=classic;endFill=1;entryX=0;entryY=0.5;entryDx=0;entryDy=0;" edge="1" parent="1" source="aum1AoG0NpGCuyagNsFS-178" target="aum1AoG0NpGCuyagNsFS-194">
          <mxGeometry relative="1" as="geometry">
            <mxPoint x="760" y="1020.0000000000002" as="sourcePoint" />
            <mxPoint x="830" y="1036.1538461538462" as="targetPoint" />
          </mxGeometry>
        </mxCell>
        <mxCell id="aum1AoG0NpGCuyagNsFS-218" value="" style="edgeStyle=none;rounded=0;orthogonalLoop=1;jettySize=auto;html=1;endArrow=classic;endFill=1;" edge="1" parent="1" source="aum1AoG0NpGCuyagNsFS-197" target="aum1AoG0NpGCuyagNsFS-217">
          <mxGeometry relative="1" as="geometry" />
        </mxCell>
        <mxCell id="aum1AoG0NpGCuyagNsFS-197" value="Speakers" style="whiteSpace=wrap;html=1;rounded=0;strokeColor=#82b366;fillColor=#d5e8d4;gradientColor=#97d077;" vertex="1" parent="1">
          <mxGeometry x="1030" y="945" width="120" height="30" as="geometry" />
        </mxCell>
        <mxCell id="aum1AoG0NpGCuyagNsFS-198" value="" style="edgeStyle=none;rounded=0;orthogonalLoop=1;jettySize=auto;html=1;endArrow=classic;endFill=1;entryX=0;entryY=0.5;entryDx=0;entryDy=0;exitX=1;exitY=0.25;exitDx=0;exitDy=0;" edge="1" source="aum1AoG0NpGCuyagNsFS-197" target="aum1AoG0NpGCuyagNsFS-201" parent="1">
          <mxGeometry relative="1" as="geometry">
            <mxPoint x="1170" y="950.8823529411764" as="sourcePoint" />
          </mxGeometry>
        </mxCell>
        <mxCell id="aum1AoG0NpGCuyagNsFS-199" value="" style="edgeStyle=none;rounded=0;orthogonalLoop=1;jettySize=auto;html=1;endArrow=classic;endFill=1;exitX=1;exitY=1;exitDx=0;exitDy=0;" edge="1" source="aum1AoG0NpGCuyagNsFS-197" target="aum1AoG0NpGCuyagNsFS-202" parent="1">
          <mxGeometry relative="1" as="geometry">
            <mxPoint x="1170" y="979.1176470588234" as="sourcePoint" />
          </mxGeometry>
        </mxCell>
        <mxCell id="aum1AoG0NpGCuyagNsFS-200" value="" style="edgeStyle=none;rounded=0;orthogonalLoop=1;jettySize=auto;html=1;endArrow=classic;endFill=1;exitX=1;exitY=0.5;exitDx=0;exitDy=0;" edge="1" source="aum1AoG0NpGCuyagNsFS-197" target="aum1AoG0NpGCuyagNsFS-203" parent="1">
          <mxGeometry relative="1" as="geometry">
            <mxPoint x="1170" y="964.9999999999998" as="sourcePoint" />
          </mxGeometry>
        </mxCell>
        <mxCell id="aum1AoG0NpGCuyagNsFS-201" value="Speaker Name" style="whiteSpace=wrap;html=1;rounded=0;gradientColor=#ffd966;fillColor=#fff2cc;strokeColor=#d6b656;" vertex="1" parent="1">
          <mxGeometry x="1220" y="910" width="120" height="30" as="geometry" />
        </mxCell>
        <mxCell id="aum1AoG0NpGCuyagNsFS-202" value="Role" style="whiteSpace=wrap;html=1;rounded=0;gradientColor=#ffd966;fillColor=#fff2cc;strokeColor=#d6b656;" vertex="1" parent="1">
          <mxGeometry x="1220" y="990" width="120" height="30" as="geometry" />
        </mxCell>
        <mxCell id="aum1AoG0NpGCuyagNsFS-203" value="Biography" style="whiteSpace=wrap;html=1;rounded=0;gradientColor=#ffd966;fillColor=#fff2cc;strokeColor=#d6b656;" vertex="1" parent="1">
          <mxGeometry x="1220" y="950" width="120" height="30" as="geometry" />
        </mxCell>
        <mxCell id="aum1AoG0NpGCuyagNsFS-204" value="Twitter" style="whiteSpace=wrap;html=1;rounded=0;gradientColor=#ffd966;fillColor=#fff2cc;strokeColor=#d6b656;" vertex="1" parent="1">
          <mxGeometry x="1220" y="1030" width="120" height="30" as="geometry" />
        </mxCell>
        <mxCell id="aum1AoG0NpGCuyagNsFS-205" value="" style="edgeStyle=none;rounded=0;orthogonalLoop=1;jettySize=auto;html=1;endArrow=classic;endFill=1;entryX=0;entryY=0.5;entryDx=0;entryDy=0;" edge="1" source="aum1AoG0NpGCuyagNsFS-197" target="aum1AoG0NpGCuyagNsFS-204" parent="1">
          <mxGeometry relative="1" as="geometry">
            <mxPoint x="1130" y="1020.0000000000002" as="sourcePoint" />
            <mxPoint x="1200" y="1036.1538461538462" as="targetPoint" />
          </mxGeometry>
        </mxCell>
        <mxCell id="aum1AoG0NpGCuyagNsFS-206" value="" style="edgeStyle=none;rounded=0;orthogonalLoop=1;jettySize=auto;html=1;endArrow=classic;endFill=1;" edge="1" target="aum1AoG0NpGCuyagNsFS-197" parent="1">
          <mxGeometry relative="1" as="geometry">
            <mxPoint x="520" y="960" as="sourcePoint" />
            <Array as="points">
              <mxPoint x="520" y="1120" />
              <mxPoint x="1090" y="1120" />
            </Array>
          </mxGeometry>
        </mxCell>
        <mxCell id="aum1AoG0NpGCuyagNsFS-207" value="Photo" style="whiteSpace=wrap;html=1;rounded=0;gradientColor=#ffd966;fillColor=#fff2cc;strokeColor=#d6b656;" vertex="1" parent="1">
          <mxGeometry x="1220" y="1075" width="120" height="30" as="geometry" />
        </mxCell>
        <mxCell id="aum1AoG0NpGCuyagNsFS-208" value="" style="edgeStyle=none;rounded=0;orthogonalLoop=1;jettySize=auto;html=1;endArrow=classic;endFill=1;entryX=0;entryY=0.5;entryDx=0;entryDy=0;exitX=0.605;exitY=1.069;exitDx=0;exitDy=0;exitPerimeter=0;" edge="1" target="aum1AoG0NpGCuyagNsFS-207" parent="1" source="aum1AoG0NpGCuyagNsFS-197">
          <mxGeometry relative="1" as="geometry">
            <mxPoint x="1112.9411764705883" y="1020" as="sourcePoint" />
            <mxPoint x="1200" y="1081.1538461538462" as="targetPoint" />
          </mxGeometry>
        </mxCell>
        <mxCell id="aum1AoG0NpGCuyagNsFS-210" value="" style="edgeStyle=none;rounded=0;orthogonalLoop=1;jettySize=auto;html=1;endArrow=classic;endFill=1;" edge="1" parent="1">
          <mxGeometry relative="1" as="geometry">
            <mxPoint x="520" y="1085" as="sourcePoint" />
            <mxPoint x="1030" y="870" as="targetPoint" />
            <Array as="points">
              <mxPoint x="620" y="1085" />
              <mxPoint x="1005" y="1085" />
              <mxPoint x="1005" y="870" />
            </Array>
          </mxGeometry>
        </mxCell>
        <mxCell id="aum1AoG0NpGCuyagNsFS-214" value="" style="edgeStyle=none;rounded=0;orthogonalLoop=1;jettySize=auto;html=1;endArrow=classic;endFill=1;" edge="1" source="aum1AoG0NpGCuyagNsFS-215" target="aum1AoG0NpGCuyagNsFS-216" parent="1">
          <mxGeometry relative="1" as="geometry" />
        </mxCell>
        <mxCell id="aum1AoG0NpGCuyagNsFS-234" style="edgeStyle=none;rounded=0;orthogonalLoop=1;jettySize=auto;html=1;entryX=0;entryY=0.25;entryDx=0;entryDy=0;endArrow=classic;endFill=1;" edge="1" parent="1" target="aum1AoG0NpGCuyagNsFS-226">
          <mxGeometry relative="1" as="geometry">
            <mxPoint x="1006" y="874.02" as="sourcePoint" />
            <mxPoint x="1019.6399999999999" y="790" as="targetPoint" />
            <Array as="points">
              <mxPoint x="1006" y="770" />
            </Array>
          </mxGeometry>
        </mxCell>
        <mxCell id="aum1AoG0NpGCuyagNsFS-215" value="Register" style="whiteSpace=wrap;html=1;rounded=0;strokeColor=#82b366;fillColor=#d5e8d4;gradientColor=#97d077;" vertex="1" parent="1">
          <mxGeometry x="1030" y="850" width="120" height="30" as="geometry" />
        </mxCell>
        <mxCell id="aum1AoG0NpGCuyagNsFS-216" value="Input for event register" style="whiteSpace=wrap;html=1;rounded=0;gradientColor=#ffd966;fillColor=#fff2cc;strokeColor=#d6b656;" vertex="1" parent="1">
          <mxGeometry x="1222" y="850" width="120" height="30" as="geometry" />
        </mxCell>
        <mxCell id="aum1AoG0NpGCuyagNsFS-217" value="Component?" style="whiteSpace=wrap;html=1;rounded=0;strokeColor=#b85450;fillColor=#f8cecc;gradientColor=#ea6b66;" vertex="1" parent="1">
          <mxGeometry x="1050" y="900" width="80" height="20" as="geometry" />
        </mxCell>
        <mxCell id="aum1AoG0NpGCuyagNsFS-221" value="table?" style="whiteSpace=wrap;html=1;rounded=0;strokeColor=#b85450;fillColor=#f8cecc;gradientColor=#ea6b66;" vertex="1" parent="1">
          <mxGeometry x="680" y="910" width="70" height="20" as="geometry" />
        </mxCell>
        <mxCell id="aum1AoG0NpGCuyagNsFS-223" value="" style="edgeStyle=none;rounded=0;orthogonalLoop=1;jettySize=auto;html=1;endArrow=classic;endFill=1;" edge="1" source="aum1AoG0NpGCuyagNsFS-226" target="aum1AoG0NpGCuyagNsFS-227" parent="1">
          <mxGeometry relative="1" as="geometry" />
        </mxCell>
        <mxCell id="aum1AoG0NpGCuyagNsFS-224" value="" style="edgeStyle=none;rounded=0;orthogonalLoop=1;jettySize=auto;html=1;endArrow=classic;endFill=1;" edge="1" source="aum1AoG0NpGCuyagNsFS-226" target="aum1AoG0NpGCuyagNsFS-228" parent="1">
          <mxGeometry relative="1" as="geometry" />
        </mxCell>
        <mxCell id="aum1AoG0NpGCuyagNsFS-225" value="" style="edgeStyle=none;rounded=0;orthogonalLoop=1;jettySize=auto;html=1;endArrow=classic;endFill=1;" edge="1" source="aum1AoG0NpGCuyagNsFS-226" target="aum1AoG0NpGCuyagNsFS-229" parent="1">
          <mxGeometry relative="1" as="geometry" />
        </mxCell>
        <mxCell id="aum1AoG0NpGCuyagNsFS-226" value="Associates / Partners" style="whiteSpace=wrap;html=1;rounded=0;strokeColor=#82b366;fillColor=#d5e8d4;gradientColor=#97d077;" vertex="1" parent="1">
          <mxGeometry x="1030" y="760" width="120" height="30" as="geometry" />
        </mxCell>
        <mxCell id="aum1AoG0NpGCuyagNsFS-227" value="Name" style="whiteSpace=wrap;html=1;rounded=0;gradientColor=#ffd966;fillColor=#fff2cc;strokeColor=#d6b656;" vertex="1" parent="1">
          <mxGeometry x="1200" y="720" width="120" height="30" as="geometry" />
        </mxCell>
        <mxCell id="aum1AoG0NpGCuyagNsFS-228" value="Logo" style="whiteSpace=wrap;html=1;rounded=0;gradientColor=#ffd966;fillColor=#fff2cc;strokeColor=#d6b656;" vertex="1" parent="1">
          <mxGeometry x="1200" y="800" width="120" height="30" as="geometry" />
        </mxCell>
        <mxCell id="aum1AoG0NpGCuyagNsFS-229" value="Url" style="whiteSpace=wrap;html=1;rounded=0;gradientColor=#ffd966;fillColor=#fff2cc;strokeColor=#d6b656;" vertex="1" parent="1">
          <mxGeometry x="1200" y="760" width="120" height="30" as="geometry" />
        </mxCell>
      </root>
    </mxGraphModel>
  </diagram>
</mxfile>
